<?xml version="1.0" encoding="utf-8"?>
<!-- Generator: Adobe Illustrator 15.0.0, SVG Export Plug-In . SVG Version: 6.00 Build 0)  -->
<!DOCTYPE svg PUBLIC "-//W3C//DTD SVG 1.1 Tiny//EN" "http://www.w3.org/Graphics/SVG/1.1/DTD/svg11-tiny.dtd">
<svg version="1.1" baseProfile="tiny" id="Layer_1" xmlns="http://www.w3.org/2000/svg" xmlns:xlink="http://www.w3.org/1999/xlink"
	 x="0px" y="0px" viewBox="0 0 303.05 56.954" xml:space="preserve">
<g>
	<path fill-rule="evenodd" fill="#FFFFFF" d="M303.05,24.186c-0.604,0.437-1.501,0.491-2.421,0.502
		C300.964,23.901,302.027,24.073,303.05,24.186z"/>
	<path fill-rule="evenodd" fill="#FFFFFF" d="M183.971,7.321c-0.836,5.069-2.678,10.653-3.301,16.252
		c-0.181,0.507,1.05,0.047,0.575,0.765c3.757,0.383,8.074-1.06,11.398,0.487c-0.597,0.424-2.497,1.541-3.323,1.707
		c-2.355,0.463-5.562-0.587-7.443-0.299c-4.331,0.667-1.774,11.064-3.981,14.576c-0.081,0.639,0.603,0.754,0.741,1.236
		c-1.298,2.338,1.03,2.938,0.04,5.601c2.944-0.524,3.785-3.827,6.005-5.307c0.271-1.494,1.172-2.155,1.894-3.053
		c0.05-1.469,0.239-1.208,0.614-2.364c0.525,0.085,1.071,0.176,1.602,0.261c-0.568,5.353-4.707,8.233-7.088,12.065
		c-2.269,0.359-3.388,2.227-5.779,2.432c-1.297-0.575-0.833-1.681-0.691-3.023c0.188-1.701-0.693-3.904-0.688-5.929
		c0.013-2.424,0.999-5.321,1.54-6.688c-0.601-1.525,0.973-2.662-0.122-3.594c0.759-1.741,0.836-2.9,1.294-5.164
		c-2.056-0.076-3.688,0.708-5.357-0.191c0.062-0.805,0.269-1.412,0.548-1.925c2.199-0.006,3.475-1.227,5.989-0.827
		c-0.296-1.774-1.218-3.585-0.002-5.826c0.004-0.646-0.642-0.852-0.711-1.446c1.717-2.997,1.206-7.464,4.194-10.072
		C182.6,7.102,183.288,7.219,183.971,7.321z"/>
	<path fill-rule="evenodd" fill="#FFFFFF" d="M225.538,19.805c0.391,1.074-1.143,1.848-2.187,1.892
		C223.835,20.747,225.048,20.758,225.538,19.805z"/>
	<path fill-rule="evenodd" fill="#FFFFFF" d="M106.475,10.111c-0.127,0.543,0.422,0.611,0.545,0.982
		c-1.897,4.157-4.215,9-5.982,12.468c-0.764-0.298-1,0.086-1.438,0.214c0.04,1.994-0.604,5.138-2.314,5.668
		c0.795,2.214,3.886-1.014,5.214,1.063c3.068,0.308,7.299-0.558,9.731,0.667c0.323-0.025,0.274-0.514,0.367-0.837
		c1.191,0.085,1.986,0.434,2.145,1.239c-1.759,1.05-2.937,1.596-6.447,0.756c-2.929,1.59-6.461,2.402-11.061,1.805
		c-1.93,0.887-4.33,1.164-7.361,0.608c3.473-4.506,7.638-9.473,9.28-15.516c0.588,0.251,0.515-0.377,0.793-0.543
		c-0.204-1.257-0.168-1.489,0.418-2.619c-0.117-0.246-0.487-0.308-0.35-0.727c-1.147,0.957-3.025,0.952-4.46,1.524
		c-0.098,0.58-0.189,1.165-0.284,1.747c-1.567-0.395-1.897,0.84-3.562,0.316c-0.741-3.903,4.27-4.498,6.211-6.601
		C101.831,12.973,102.931,9.935,106.475,10.111z"/>
	<path fill-rule="evenodd" fill="#FFFFFF" d="M39.665,0.291c-0.363,0.841,0.854,1.594-0.126,2.215
		c-0.779,0.474-1.579,0.913-1.945,1.93c-1.375,0.033-2.554,0.34-3.25,1.264c-6.059-0.059-9.851,2.87-15.905,2.823
		c-0.566,0.144-0.636,0.92-1.51,0.653c0.708,2.584,0.353,5.42,1.657,7.2c-1.588,3.277,1.474,5.722-0.029,8.949
		c1.301,0.715,0.294,3.025,1.232,3.993c5.158-2.618,10.527-4.967,15.145-8.305c3.348-0.045,3.843,1.875,4.574,3.637
		c0.042,1.029-0.585,1.18-0.773,1.89c-0.534-0.089-1.069-0.172-1.603-0.254c0.123-0.66-0.736-0.652-0.478-1.415
		c-0.603-0.1-1.208-0.201-1.823-0.296c-3.28,1.668-5.465,4.782-9.339,5.661c-0.848,2.224-3.183,2.499-4.421,4.214
		c-0.569,0.047-1.609-0.537-1.864-0.074c-0.146,1.128,1.839,0.803,1.809,1.858c0.063,0.605-0.531,0.34-0.788,0.538
		c0.764,1.869,1.116,4.016,0.55,6.808c1.36,1.964,2.163,4.322,1.848,7.454c2.053,2.513-1.163,6.718-3.529,5.921
		c-0.237-0.482-0.015-1.275-0.176-1.821c-2.763-1.615-0.986-4.401-0.738-7.051c0.199-2.22-0.903-10.153-2.891-11.205
		c0.069-0.558,0.038-1.057-0.248-1.378c0.632-0.491,0.707-1.71,1.298-2.259c-0.745-6.262-2.025-13.337-2.854-20.146
		c-1.825,0.121-1.073-2.752-1.955-3.887c-2.604,0.892-7.592,0.615-8.528,3.551c-0.88,2.762,1.725,6.284,0.849,9.303
		c1.014,0.303-0.141,1.095,1.192,1.317c-0.327,0.627-0.664,1.231-1.003,1.85c-1.447-3.437-5.29-9.128-3.638-13.783
		c1.226-3.471,5.677-3.054,8.741-4.862c3.246,1.198,2.998-2.212,4.123-3.813c0.832,0.286,0.944,0.299,1.825,0.296
		c-0.005,1.037,0.677,1.6,1.025,2.399c1.085,0.207,2.521-1.094,3.492,0.11c2.21-1.339,5.024-1.721,8.166-2.718
		c1.189-0.375,1.744-1.221,3.63-0.754C33.624,0.792,35.755-0.623,39.665,0.291z"/>
	<path fill-rule="evenodd" fill="#FFFFFF" d="M125.769,27.073c-0.622-0.202-1.645,1.296-1.668,0.183
		c-0.572,0.219-0.258,1.602-1.355,1.124c-0.934-0.392,0.365-1.157-0.176-1.815c-4.572,3.104-6.193,10.8-7.59,16.681
		c4.993-4.648,8.172-10.054,12.551-15.439c1.042-0.076,1.069,0.552,1.747,0.728c-0.5,4.865-0.316,9.28,1.244,12.727
		c0.679,0.111,1.37,0.226,2.051,0.331c4.512-2.241,7.007-7.153,11.183-9.84c0.428-1.727,1.33-2.821,2.067-4.147
		c0.791,0.732,1.916,3.522,0.283,4.078c0.911,2.754,0.114,5.575,1.252,8.253c0.859-0.104,1.32-0.737,1.654-1.525
		c2.385-0.472,3.295-2.887,5.883-3.084c1.387-1.067,2.134-2.995,4.046-3.38c1.834,1.845,1.948,4.874,3.595,6.841
		c2.478-0.779,4.374-2.341,6.631-3.412c1.59,1.788-0.879,2.939-1.97,3.492c-0.514,0.272-0.727,1.063-1.148,1.38
		c-0.713,0.525-1.53,0.492-2.035,1.016c-0.388,0.397-0.467,1.233-1.161,1.383c-0.311,0.208-0.845,0.119-1.405-0.003
		c-0.868,0.79-1.533,1.865-3.093,1.738c-1.95-1.371-1.536-4.371-3.009-6.076c-5.056,1.698-7.792,6.473-12.595,8.499
		c-0.779-1.658-0.793-5.149,0.585-6.618c-1.208-1.532-0.029-4.22-0.426-6.109c-2.624,4.12-6.401,6.712-9.388,10.355
		c-1.542,0.606-3.201,1.063-4.918,1.446c-1.729-0.553-1.863-2.205-2.997-3.169c-0.048-0.502,0.482-0.236,0.554-0.579
		c-1.814-1.862-0.739-3.551-1.861-5.895c-4.729,2.929-6.838,9.307-11.756,11.991c-0.384-0.06-0.761-0.121-1.145-0.18
		c0.512-3.765,1.756-8.761,3.526-11.75c1.115-6.142,4.897-10.941,8.648-14.495c0.685,0.113,1.368,0.218,2.056,0.332
		C126.577,23.577,126.26,24.879,125.769,27.073z"/>
	<path fill-rule="evenodd" fill="#FFFFFF" d="M63.538,13.517c2.11-0.286,3.785,1.398,3.95,3.098
		c-0.636,0.386-0.91,1.253-1.257,2.036c-1.489,0.01-1.187-1.33-2.25-0.587c-0.138-1.46-1.708-1.931-1.793-3.419
		c0.671,0.271,0.731-0.269,1.405,0C63.031,13.908,64.516,13.776,63.538,13.517z"/>
	<path fill-rule="evenodd" fill="#FFFFFF" d="M86.446,22.563c0.789,0.101,0.435,0.985,1.23,1.091
		c-0.974,1.446-1.659,3.275-2.636,4.723c0.668,1.558-1.04,2.963-1.797,3.963c-1.361,1.775-0.889,3.952-2.99,3.993
		c0.06,2.566-0.956,4.765-2.385,6.104c4.754,0.898,9.928,0.067,15.02,1.29c0.319-0.012,0.271-0.514,0.364-0.837
		c1.055,0.377,2.31,0.617,2.04,1.904c-0.901-0.09-1.785-0.305-2.225,0.754c-3.412-1.275-7.099,1.542-11.382,0.854
		c-0.229,0.323-0.778,0.211-0.826,0.764c-4.379-1.003-6.149,1.418-10.591,0.317c3.916-4.528,7.132-9.977,10.032-15.84
		c-0.241-1.258,0.531-2.13,0.598-3.707c-0.95-0.192-1.095,0.669-1.578,1.085c-3.665-0.86-3.332,3.541-7.183,2.429
		c-0.611-3.841,4.388-4.514,6.443-6.576C82.099,25.359,84.149,22.851,86.446,22.563z"/>
	<path fill-rule="evenodd" fill="#FFFFFF" d="M65.843,26.865c-0.887,5.05,0.452,9.462-0.866,14.181
		c-0.121,0.661,0.741,0.655,0.475,1.422c-1.932,1.836-0.957,5.826-2.7,8.063c-1.609,0.008-1.122-1.428-1.775-2.075
		c2.058-2.478,0.441-7.612,2.14-10.398c-0.68-1.667-0.847-3.681-0.427-6.107c0.031-0.8-0.895-0.936-0.898-1.708
		c0.238-2.205,0.769-2.12,0.862-3.891C63.546,26.067,65.221,26.006,65.843,26.865z"/>
	<path fill-rule="evenodd" fill="#FFFFFF" d="M249.828,8.49c-0.171,0.251-1.571,0.182-0.821,0.763
		c-0.473,0.205-1.035-0.268-1.473,0.438c0.493,0.639,1.875,0.202,1.767-0.838c2.392-0.679,4.521-0.402,6.926,0.665
		c0.438,1.056,1.097,2.264,1.523,3.603c0.187,0.578,1.078,1.23,1.158,1.527c0.605,2.139-0.425,5.511,0.154,7.857
		c0.337-0.046,1.253-1.373,1.208-0.256c0.714-0.642,1.329-1.425,2.558-1.378c0.058-1.612,4.169-2.711,5.062-2.325
		c0.813-0.773,1.905-1.187,3.639-0.76c0.333,0.217-0.229,1.065,0.542,0.983c-0.132-1.165,1.925,0.694,2.6,1.314
		c0.039,0.481-0.393,0.363-0.757,0.325c0.258,1.16,3.263,2.128,1.829,3.2c0.295,0.643,2.21,0.157,2.18,1.018
		c3.39-0.197,6.272-1.071,9.394-1.624c-0.159,0.403-0.908,0.034-0.831,0.759c0.768-0.218,1.649-0.296,1.655-1.517
		c0.382,0.056,0.762,0.118,1.145,0.181c-0.256,0.535-0.93,0.533-1.132,1.158c0.676-0.078,1.134-0.438,1.361-1.121
		c0.489,0.228,0.857,0.957,1.564,0.472c0.163-0.506-1.064-0.042-0.585-0.763c2.812,0.725,3.898,0.436,5.341,1.747
		c0.701-0.032-0.147-0.5,0.142-0.872c1.715-0.217,3.184,1.528,3.425,0.553c0.374,0.058,0.756,0.121,1.14,0.177
		c-0.045,0.296-0.09,0.587-0.144,0.875c-1.442-0.163-2.775-0.414-3.582-1.018c-0.319,0.016-0.273,0.514-0.366,0.831
		c-1.18-0.255-4.019-0.824-5.125-0.145c1.285,0.766,5.78-0.497,6.286,1.675c-0.421-0.164-1.426,0.076-1.071-0.619
		c-2.417,0.783-6.863-1.116-7.955,1.412c-3.41-0.445-5.061,1.438-8.176,1.375c-0.058-0.507,0.48-0.247,0.552-0.586
		c-2.051-0.212-5.103-0.486-7.5-1.423c-1.28-1.811-1.693-5.26-5.143-4.408c-0.328,0.021-0.283,0.512-0.371,0.833
		c-2.193,0.023-2.557,2.449-5.222,1.85c-0.39,0.66,0.716,0.286,0.319,0.942c-1.216-0.548-1.276,0.433-1.575,1.094
		c-1.313-0.229-1.952,0.42-2.721,0.909c-0.945-0.085-0.054-0.477-0.094-0.912c-1.141-0.36-1.287,0.595-1.804,1.052
		c-0.889-0.426-1.152-1.276-2.067-1.67c-0.307-5.013,0.246-8.558-1.472-12.766c-2.631,0.052-4.281,1.407-7.203,1.079
		c-2.714,2.942-7.695,2.896-10.325,5.951c-0.187-0.127-0.371-0.252-0.378-0.505c-0.58,0.473-1.009,1.139-2.04,1.011
		c0.021-0.762,0.288-1.204,0.508-1.709c1.688-0.706,2.99,0.326,4.232-1.551c-0.073,0.452-2.051,0.546-1.828-0.3
		c-2.193,0.894-3.828,2.532-6.336,3.014c-0.224,1.463-1.579,1.45-2.634,1.813c-2.719,2.761-6.497,4.131-8.898,7.304
		c-4.86,2.149-6.947,7.927-11.517,10.456c-0.702,2.064-2.281,2.977-4.28,3.339c-0.271,0.644,0.104,0.833,0.017,1.347
		c-2.275,0.635-6.002,2.189-7.778,0.321c-3.051-6.881-0.008-17.825,5.111-23.125c0.46,0.078,0.918,0.145,1.369,0.221
		c-0.943,5.17-3.476,7.325-3.623,12.396c0.745-0.073,0.282-1.739,1.575-1.092c2.009-3.491,1.324-9.015,3.942-11.444
		c0.766,0.122,1.519,0.239,2.286,0.368c0.066,5.032-2.976,9.092-4.519,13.592c-1.948,0.254-3.6,2.119-3.324,4.609
		c0.075,0.646,0.989,0.983,0.671,1.679c7.158-0.003,9.62-6.175,14.381-9.334c0.326-0.734,0.115-0.524,0.436-1.269
		c0.231,0.036,0.458,0.077,0.685,0.112c1.327-2.396,4.062-2.933,5.317-5.416c0.241,0.093,0.089,0.464,0.386,0.51
		c0.396-0.063,0.188-0.933,0.444-1.269c0.607-0.827,2.96-1.316,4.37-2.435c1.556-1.238,2.812-3.834,3.986-2.937
		c2.125-3.098,6.593-3.1,9.107-5.699c-2.338-0.076-4.934,3.173-7.286,3.085c-0.874,1.574-2.646,1.972-3.786,3.192
		c-0.208-1.141,0.477-1.179,1.715-1.962c1.957-1.25,4.508-3.092,7.003-4.247c1.983-0.917,2.809-1.99,4.831-2.356
		c0.326-0.097,0.495-0.395,0.599-0.797c0.354,0.039,0.851,0.241,0.941-0.073c0.177,0.601-1.675,2.227-2.109,1.451
		c-0.334,0.167-0.41,0.693-0.813,0.762c1.708,0.405,3.301-1.625,5.211-1.848c-0.111-1.073-0.862,0.381-1.336-0.438
		c1.487-0.496,2.434-1.718,4.46-1.52c0.331-0.098,0.498-0.399,0.603-0.802C248.682,9.091,248.781,8.167,249.828,8.49z
		 M263.653,20.104c0.158,0.027,0.313,0.048,0.463,0.071c-0.084,0.131-0.703,0.753-0.139,0.876
		C264.545,20.55,264.366,19.076,263.653,20.104z M244.774,10.809c0.893,0.036,1.615-0.161,1.996-0.793
		C245.973,10.102,245.073,10.065,244.774,10.809z M245.105,13.104c1.068,0.176,2.135,0.34,3.2,0.509
		c0.374-0.833,1.466-0.718,1.873-1.483c0.795-0.099,2.407,0.877,2.584-0.038c0.062-0.943-1.879-0.508-2.672-0.873
		C249.378,13.099,246.549,12.184,245.105,13.104z M241.566,14.771c1.032,0.059,1.665-0.433,2.256-0.978
		C242.812,13.784,241.832,13.809,241.566,14.771z M269.552,18.364c0.538,0.089,1.074,0.176,1.6,0.264
		C271.355,17.717,269.783,18.169,269.552,18.364z M268.458,20.875c0.215-1.03,1.994-0.006,2.067-1.229
		C269.729,19.753,267.829,19.774,268.458,20.875z M266.097,20.938c1.21-0.098,0.486-0.212,1.597,0.261
		c0.4-0.663-0.706-0.288-0.312-0.945c0.123,0.02,0.288-0.134,0.031-0.22C267.313,20.777,266.191,20.182,266.097,20.938z
		 M236.924,17.384c0.37-0.242,1.77-0.464,1.128-1.166C237.553,16.293,236.244,16.642,236.924,17.384z M263.377,21.849
		c-0.22,1.213-2.378,1.261-2.02,2.361c-0.122-0.69,0.573-0.3,0.985-0.284c0.016-1.183,1.628-0.754,2.172-1.895
		c0.051,0.253,0.862,1.071,0.918,0.148c0.179-0.673-0.751,0.448-0.648-0.328c0.155-0.35,1.452-0.51,0.856-0.983
		C264.986,21.326,264.629,22.178,263.377,21.849z M279.535,26.228c0.358,0.083,0.794,0.109,0.614,0.549
		c0.584-0.035,1.205,0.004,1.281-0.686C280.739,26.041,279.698,25.559,279.535,26.228z"/>
	<path fill-rule="evenodd" fill="#FFFFFF" d="M41.434,46.222c-0.112-1.847-0.02-3.55,0.489-5.97c-1.168-1.234-1.247-4.068-0.27-5.63
		c0.528,0.148-0.029,1.051,0.768,1.016c0.377-1.857,1.711-3.574,2.054-5.488c1.083-0.201,1.979-2.83,3.754-2.977
		c-0.64-0.911-1.117,0.625-1.929,0.36c0.883-1.13,2.392-1.433,4.2-1.342c-0.565,0.405-1.43,0.409-2.006,0.798
		c2.775-0.747,7.925,2.188,7.332,5.425c-0.948-1.349-2.498-2.292-3.389-3.672c-3.367-1.622-5.905,0.499-6.639,3.412
		c-1.417,5.602-0.14,12.805-0.484,17.595c0.354,0.984,0.708,1.968,0.394,3.421c-1.169-0.13-1.507,0.833-2.883,0.421
		c0.151-1.326-1.198-1.625-1.176-2.868c-0.535-0.085-1.069-0.167-1.6-0.254c0.331-1.577-1.122-3.094-1.78-4.98
		c-0.021-0.313-0.544-0.272-0.877-0.364c0.333-1.076-0.328-1.459-1.123-1.75c2.139-0.246,3.414,1.789,4.699,2.773
		C41.289,46.148,41.545,45.305,41.434,46.222z"/>
</g>
</svg>
