<?xml version="1.0" encoding="utf-8"?>
<!-- Generator: Adobe Illustrator 15.0.2, SVG Export Plug-In . SVG Version: 6.00 Build 0)  -->
<!DOCTYPE svg PUBLIC "-//W3C//DTD SVG 1.1//EN" "http://www.w3.org/Graphics/SVG/1.1/DTD/svg11.dtd">
<svg version="1.1" id="Layer_1" xmlns="http://www.w3.org/2000/svg" xmlns:xlink="http://www.w3.org/1999/xlink" x="0px" y="0px"
	 viewBox="37.971 147.528 728.266 418.973"
	 enable-background="new 37.971 147.528 728.266 418.973" xml:space="preserve">
<g>
	<path fill="#FFFFFF" d="M37.971,147.528h34.266v6.891H46.181v21.145h24.071v6.795H46.181v28.792h-8.21V147.528z"/>
	<path fill="#FFFFFF" d="M121.689,148.376c4.155-0.848,10.101-1.322,15.763-1.322c8.779,0,14.444,1.605,18.407,5.191
		c3.21,2.832,5.003,7.174,5.003,12.082c0,8.402-5.286,13.973-11.99,16.237v0.283c4.908,1.702,7.835,6.231,9.346,12.839
		c2.079,8.875,3.589,15.01,4.908,17.464h-8.496c-1.037-1.793-2.455-7.271-4.247-15.197c-1.888-8.779-5.286-12.083-12.743-12.369
		h-7.74v27.565h-8.211V148.376L121.689,148.376z M129.9,177.357h8.401c8.779,0,14.348-4.816,14.348-12.083
		c0-8.212-5.947-11.798-14.631-11.893c-3.966,0-6.795,0.377-8.118,0.755V177.357z"/>
	<path fill="#FFFFFF" d="M218.432,147.528v63.623h-8.211v-63.623H218.432z"/>
	<path fill="#FFFFFF" d="M266.188,206.337l35.305-51.635v-0.283H269.21v-6.891h42.95v5.003l-35.115,51.447v0.284h35.588v6.891
		h-46.446V206.337L266.188,206.337z"/>
	<path fill="#FFFFFF" d="M356.135,206.337l35.305-51.635v-0.283h-32.282v-6.891h42.951v5.003l-35.114,51.447v0.284h35.588v6.891
		h-46.443v-4.816H356.135z"/>
	<path fill="#FFFFFF" d="M460.715,191.139l-6.607,20.013h-8.498l21.616-63.623h9.913l21.711,63.623h-8.778l-6.8-20.013H460.715z
		 M481.573,184.72l-6.23-18.313c-1.416-4.155-2.36-7.93-3.302-11.611h-0.188c-0.943,3.776-1.982,7.645-3.21,11.516l-6.23,18.406
		L481.573,184.72L481.573,184.72z"/>
	<path fill="#FFFFFF" d="M545.94,211.151v-63.623h8.966l20.392,32.189c4.718,7.458,8.4,14.159,11.42,20.673l0.19-0.096
		c-0.757-8.496-0.944-16.236-0.944-26.148v-26.618h7.742v63.623h-8.309l-20.201-32.282c-4.438-7.081-8.685-14.348-11.895-21.242
		l-0.281,0.096c0.473,8.023,0.659,15.67,0.659,26.241v27.188h-7.739V211.151z"/>
	<path fill="#FFFFFF" d="M657.877,154.511h-19.352v-6.983h47.107v6.983h-19.446v56.64h-8.308v-56.64H657.877z"/>
	<path fill="#FFFFFF" d="M763.405,181.323h-24.734v22.935h27.565v6.891H730.46v-63.622h34.359v6.891h-26.148v20.103h24.734V181.323z
		"/>
</g>
<g>
	<path fill="#FFFFFF" d="M255.807,297.007v-11.628H246.3v11.628h-7.427v-29.075h7.427v10.921h9.507v-10.921h7.426v29.075H255.807
		L255.807,297.007z"/>
	<path fill="#FFFFFF" d="M306.117,297.007l-1.416-4.203h-10.097l-1.533,4.203h-7.977l11.668-29.075h5.854l11.553,29.075H306.117z
		 M299.75,276.969h-0.039h-0.076l-2.986,9.939h6.091L299.75,276.969z"/>
</g>
<g>
	<path fill="#FFFFFF" d="M348.212,297.558c-8.447,0-15.324-6.601-15.324-15.126c0-8.525,6.799-15.048,15.247-15.048
		c5.263,0,9.901,2.437,12.808,6.837c0.943,1.414,1.689,3.063,1.965,4.754h-7.779c-1.139-2.987-3.771-5.068-7.032-5.068
		c-4.715,0-7.779,4.008-7.779,8.486s3.064,8.643,7.819,8.643c3.262,0,5.695-2.042,6.994-4.91h7.778
		C361.218,292.999,355.245,297.558,348.212,297.558z"/>
	<path fill="#FFFFFF" d="M401.862,297.007l-7.935-12.572h-0.077v12.572h-7.427v-29.075h7.427v13.083h0.077l8.211-13.083h7.777
		l-9.625,14.497l10.254,14.576L401.862,297.007L401.862,297.007z"/>
	<path fill="#FFFFFF" d="M450.36,297.007l-11.08-17.68l-0.077,0.04l0.198,17.64h-7.115v-29.075h6.405l11.233,18.271l0.077-0.08
		l-0.314-18.191h7.114v29.075H450.36L450.36,297.007z"/>
	<path fill="#FFFFFF" d="M480.989,297.007v-29.075h16.146v6.523h-9.037v4.517h8.762v6.523h-8.762v4.986h9.037v6.523L480.989,297.007
		L480.989,297.007z"/>
	<path fill="#FFFFFF" d="M534.437,286.438v10.569h-7.426v-10.569l-8.683-18.506h8.054l4.32,11.669l4.359-11.669h7.977
		L534.437,286.438z"/>
</g>
<path fill="#00C2EF" d="M447.1,525.115c0.212-0.386,0.214-1.255,0.016-2.608c-0.195-1.447,0.017-2.462,0.629-3.035
	c0.617-0.579,0.813-1.19,0.589-1.845c-0.237-0.357-0.237-1.08,0-2.166c0.927-2.302,0.855-4.441-0.22-6.422
	c-2.298-4.006-6.183-7.295-11.661-9.873c-3.179-1.455-5.07-2.813-5.673-4.08c-0.323-0.753-0.751-1.216-1.295-1.386
	c-0.49-0.116-0.708-0.296-0.652-0.544c0.11-0.295-0.053-0.672-0.482-1.133c-0.48-0.519-1.09-1.528-1.832-3.052
	c-1.732-3.09-3.664-5.42-5.795-6.984c-1.506-1.001-2.704-1.561-3.594-1.693c-1.434-0.3-4.912-3.104-10.442-8.419
	c-6.789-6.352-13.953-13.694-21.49-22.034c-7.54-8.34-12.296-14.089-14.274-17.242c-1.222-2.03-2.143-3.382-2.768-4.05
	c-1.196-1.281-1.688-2.938-1.465-4.97c0.021-0.597,0.306-1.631,0.854-3.104c0.821-2.104,0.958-3.918,0.415-5.426
	c-0.448-1.407-2.907-4.354-7.373-8.835c-4.468-4.479-11.66-11.268-21.584-20.366c-7.467-6.771-11.869-10.69-13.198-11.756
	c-1.33-1.063-2.053-1.352-2.168-0.86c-0.067,0.448,4.357,5.446,13.271,15.008c3.738,4.008,7.139,7.706,10.202,11.091
	c3.061,3.39,4.928,5.443,5.6,6.163c1.523,1.943,2.079,3.104,1.667,3.484l-0.692,0.648l-8.851-9.184
	c-4.656-4.779-9.829-10.021-15.522-15.715c-5.692-5.692-8.66-8.565-8.907-8.627c-0.046-0.049-0.126,0.071-0.237,0.366
	c-0.01,0.296,2.41,3.254,7.259,8.867c4.851,5.613,10.505,12.034,16.961,19.27l6.675,7.466l-0.545,0.651
	c-0.412,0.385-0.738,0.496-0.98,0.339c-0.1-0.003-1.432-1.305-4.003-3.906c-2.57-2.598-5.604-5.724-9.106-9.379
	c-8.113-8.286-13.502-13.729-16.169-16.334c-2.668-2.607-4.081-3.833-4.234-3.692c-0.114,0.394,1.291,2.208,4.21,5.439
	c1.193,1.386,2.686,3.142,4.476,5.264c1.791,2.128,3.332,3.934,4.62,5.421c1.335,1.636,3.077,3.709,5.228,6.22
	c2.148,2.516,4.11,4.72,5.883,6.619c3.15,3.692,5.036,5.968,5.651,6.832c0.614,0.869,0.646,1.417,0.093,1.644
	c-0.252,0.143-1.294-0.712-3.118-2.567c-1.824-1.855-6.063-6.451-12.715-13.79c-4.215-4.522-7.918-8.492-11.104-11.911
	c-3.187-3.416-4.923-5.277-5.211-5.586c-0.828-0.477-1.296-0.617-1.402-0.422c-0.165,0.442,1.683,3.044,5.544,7.8
	c2.38,3.063,5.948,7.687,10.701,13.871c4.756,6.181,8.438,11.032,11.048,14.555c3.752,5.051,6.285,8.331,7.599,9.845
	s2.438,2.462,3.367,2.843c1.176,0.538,2.418,0.578,3.725,0.126c2.262-0.664,4.036-0.617,5.327,0.151
	c1.291,0.765,3.799,3.252,7.532,7.455c3.439,4,8.103,9.592,13.991,16.778c5.889,7.197,10.092,12.453,12.61,15.772
	c6.596,9.028,10.673,15.458,12.226,19.288c0.774,2.071,1.369,3.432,1.795,4.088c0.327,0.563,1.772,1.955,4.327,4.181
	c2.558,2.225,4.156,3.478,4.791,3.747c1.66,0.948,2.875,2.362,3.656,4.228c0.42,0.758,0.846,2.092,1.281,3.994
	c0.28,1.855,0.863,3.712,1.744,5.583c0.828,1.818,2.225,3.831,4.186,6.041c2.063,2.204,3.485,3.426,4.276,3.652
	c1.813,0.707,3.325,0.788,4.54,0.231c0.705-0.27,1.179-0.281,1.418-0.025c0.192,0.207,0.589,0.221,1.19,0.047
	c1.752-0.29,3.471-0.301,5.147-0.047C445.783,527.207,446.601,526.54,447.1,525.115L447.1,525.115L447.1,525.115z M444.993,525.636
	c-1.202,0.162-2.056-0.189-2.573-1.056c-0.241-0.257-0.417-0.19-0.531,0.2c-0.527,0.98-0.771,0.776-0.721-0.616
	c0.015-0.397-0.138-0.353-0.456,0.133c-0.315,0.483-0.403,0.285-0.274-0.604c0.069-0.641,0-1.079-0.213-1.315
	c-0.215-0.232-0.383,0-0.51,0.694c-0.068,0.642-0.224,0.689-0.451,0.131c-0.037-0.348-0.441-0.934-1.209-1.754
	c-0.622-0.669-0.779-1.148-0.473-1.438c0.308-0.285,0.271-0.637-0.111-1.045l-0.65-0.694l-0.123,1.412
	c-0.031,0.896,0.268,1.671,0.89,2.34c0.623,0.67,0.749,1.318,0.378,1.95c-0.954,1.662-1.229,1.723-0.827,0.195
	c0.014-0.294-0.198-0.678-0.631-1.134c-0.48-0.518-0.666-0.917-0.557-1.216c0.107-0.195,0.004-0.152-0.298,0.141
	c-0.323,0.585-0.595,0.596-0.824,0.047c-0.186-0.406-0.359-0.538-0.51-0.392c-0.207,0.19-0.266,0.392-0.168,0.593
	c0.322,0.753-0.59,1.171-2.729,1.246c-1.941,0.079-2.771-0.447-2.479-1.577c0.562-1.972,0.204-2.357-1.078-1.155
	c-0.159,0.141-0.447-0.016-0.88-0.479c-0.383-0.411-0.496-0.694-0.342-0.833c0.152-0.146,0.082-0.322-0.207-0.526
	c-0.25-0.059-0.729-0.91-1.441-2.552c-0.712-1.638-0.969-2.504-0.767-2.599c0.684,0.324,1.262,1.614,1.729,3.864
	c0.344,1.502,1.599,2.641,3.758,3.41c0.586,0.322,0.962,0.211,1.131-0.33c0.313-0.387,0.59-0.555,0.833-0.492
	c0.891,0.132,0.833-0.347-0.17-1.423c-1.006-1.08-1.381-1.069-1.125,0.031c0.162,1.101-0.466,1.255-1.88,0.457
	c-0.823-0.474-1.677-1.648-2.557-3.515c-0.929-1.919-1.318-2.903-1.166-2.947c0.147,0.054,0.479,0.612,0.985,1.671
	c0.457,1.111,0.861,1.699,1.206,1.759c0.101,0.105,0.147,0.133,0.149,0.08c0.003-0.052-0.069-0.157-0.212-0.307
	c-0.288-0.307-0.834-1.717-1.644-4.234c-0.805-2.513-1.133-3.788-0.984-3.832c0.146,0.055,0.488,0.984,1.02,2.793
	c1.057,3.813,2.174,6.089,3.342,6.827c0.337,0.262,0.471,0.479,0.383,0.644c-0.077,0.173-0.316,0.155-0.702-0.06
	c-0.392-0.211-0.44-0.165-0.157,0.146c1.149,1.234,1.754,1.105,1.803-0.38c-0.09-0.202,0.183-0.271,0.825-0.196
	c0.596,0.121,0.697,0.024,0.309-0.291c-0.391-0.211-0.312-0.33,0.237-0.363c0.597,0.02,0.606-0.275,0.031-0.896
	c-0.623-0.67-0.881-1.144-0.77-1.442c0.602-1.618,0.036-2.487-1.697-2.598c-0.254,0.041-0.36,0.237-0.318,0.591
	c-0.242,1.085-0.576,0.721-1.012-1.081c-0.126-0.647-0.068-0.851,0.171-0.59c0.286,0.306,0.485,0.311,0.595,0.021
	c0.107-0.197-0.272-0.76-1.133-1.683c-0.813-0.874-1.143-1.382-0.989-1.527c0.207-0.19,0.145-0.568-0.185-1.128
	c-0.28-0.501-0.271-0.799,0.031-0.891c0.303-0.09,0.211-0.289-0.277-0.606c-0.525-0.568-0.811-0.976-0.854-1.221
	c-0.277-0.507-2.051-2.457-5.311-5.857c-3.36-3.39-5.19-5.098-5.488-5.108c-0.302,0.091-0.816-0.151-1.541-0.724
	c-1.82-1.954-1.404-2.487,1.249-1.596c1.816,0.612,2.461,0.011,1.928-1.798c-0.221-0.753-0.18-1.275,0.128-1.556
	c0.258-0.242,0.447-0.708,0.572-1.397c0.342-1.281,1.277-1,2.801,0.84c1.098,1.381,1.613,1.571,1.55,0.578
	c-0.031-0.548,0.052-0.718,0.241-0.514c0.287,0.306,0.475,0.326,0.558,0.056c0.082-0.271,0.011-0.634-0.221-1.092
	c-0.28-0.502-0.249-0.729,0.097-0.67c0.393,0.116,0.373-0.059-0.056-0.521c-0.384-0.411-0.479-0.613-0.278-0.601
	c0.148,0.051,0.482,0.409,1.009,1.074c0.421,0.664,0.477,1.387,0.148,2.17l-0.798,1.461c-0.206,0.19-0.342,0.464-0.4,0.805
	c-0.117,0.497-0.294,0.613-0.533,0.36c-1.423-0.598-1.433-0.296-0.03,0.895c0.91,0.874,1.086,1.576,0.521,2.104
	c-0.363,0.336-0.873,0.046-1.537-0.876c-0.67-0.817-1.113-1.507-1.346-2.06c-0.135-0.451-0.355-0.532-0.662-0.246
	c-0.259,0.241-0.452,0.131-0.586-0.324c-0.184-0.401-0.288-0.305-0.31,0.288c-0.02,0.501,0.072,0.849,0.263,1.055
	c0.048,0.056,0.496,0.739,1.346,2.06c0.791,1.472,3.525,4.688,8.199,9.646c4.67,4.961,7.235,7.37,7.687,7.238
	c0.146,0.058,0.386,0.312,0.717,0.77c0.326,0.563,0.697,0.648,1.111,0.267c0.358-0.337,0.392-0.557,0.096-0.668
	c-0.396-0.018-1.314-0.796-2.745-2.331c-1.642-1.555-2.891-2.788-3.748-3.712c-0.779-0.521-1.998-1.834-3.668-3.933
	c-1.381-1.683-1.919-2.673-1.612-2.959c0.206-0.19,0.501-0.086,0.885,0.327c1.638,1.548,2.779,2.31,3.428,2.282
	c0.794,0.03,1.313,0.17,1.552,0.428c0.438,0.267,1.342,0.668,2.716,1.215c1.96,0.864,3.873,1.966,5.738,3.29
	c1.867,1.337,2.645,2.146,2.338,2.432c-1.132,1.056-0.711,1.819,1.26,2.283c0.343,0.164,0.473,0.095,0.382-0.212
	c-0.091-0.294,0.019-0.542,0.321-0.732c0.252-0.041,0.387-0.307,0.402-0.806c-0.035-0.446,0.227-0.737,0.778-0.868
	c1.148-0.207,1.641,0.729,1.468,2.814c-0.095,2.679-0.604,3.779-1.533,3.301c-0.189-0.206-0.294-0.059-0.316,0.438
	c0.242,1.699,1.081,2.547,2.521,2.547c0.744,0.075,0.512,0.291-0.695,0.648c-0.604,0.276-1.1,0.207-1.486-0.201
	c-0.62-0.669-0.653-0.496-0.09,0.519c0.327,0.557,0.162,0.479-0.514-0.242c-0.568-0.814-0.979-1.202-1.227-1.166
	c-0.207,0.096-0.057,0.513,0.438,1.249c0.496,0.739,0.939,1.211,1.331,1.423c0.438,0.268,0.559,0.474,0.354,0.612
	c-0.206,0.138-0.574,0.079-1.113-0.191c-0.688-0.221-1.097-0.605-1.23-1.159c-0.282-0.406-0.403-0.438-0.367-0.087
	c0.152,1.398,0.97,2.121,2.46,2.172c0.696,0.025,1.094-0.012,1.195-0.106c0.871-0.813,0.818-1.34-0.168-1.571
	c-0.197-0.005,0.052-0.046,0.75-0.121c0.696,0.021,1.092,0.186,1.175,0.485c-0.03,0.896-0.723,1.539-2.081,1.938
	c-0.704,0.175-0.754,0.271-0.162,0.291c0.938,0.185,0.848,0.602-0.269,1.261c-0.56,0.427-0.796,0.743-0.703,0.942
	c-0.015,0.397,0.186,0.406,0.596,0.021c0.667-0.623,1.083-0.435,1.247,0.568l0,0C445.924,524.625,445.696,525.465,444.993,525.636
	L444.993,525.636L444.993,525.636z M444.726,524.732c0.404-0.18,0.465-0.433,0.172-0.739c-0.14-0.15-0.341-0.11-0.595,0.132
	c-0.309,0.287-0.751,0.121-1.327-0.496c-0.523-0.563-0.842-0.749-0.948-0.555c-0.168,0.544,0.311,1.056,1.438,1.544
	C443.904,524.883,444.322,524.92,444.726,524.732L444.726,524.732z M441.837,519.934c-0.097-0.1-0.161-0.141-0.183-0.115
	c-0.023,0.025,0.011,0.085,0.104,0.185c0.932,1.822,0.63,1.914-0.902,0.271c-0.432-0.463-0.59-0.94-0.477-1.439
	c0.165-0.441,0.045-0.469-0.369-0.086c-0.361,0.337-0.273,0.791,0.255,1.351c0.575,0.618,0.958,0.931,1.157,0.936
	C442.418,521.073,442.552,520.708,441.837,519.934L441.837,519.934L441.837,519.934z M439.614,517.398
	c-0.186-0.302-0.629-0.491-1.324-0.568c-0.694-0.077-0.995,0.041-0.909,0.342c-0.011,0.397,0.259,0.483,0.813,0.252
	c0.398-0.086,0.845-0.02,1.338,0.196C439.771,517.872,439.797,517.804,439.614,517.398L439.614,517.398L439.614,517.398z
	 M439.794,516.508c-0.082-0.497-0.195-0.825-0.338-0.98c-0.19-0.206-0.249-0.059-0.165,0.442c0.088,0.402,0.201,0.678,0.345,0.827
	C439.83,517.003,439.88,516.909,439.794,516.508L439.794,516.508L439.794,516.508z M433.7,520.174
	c-0.005-1.245-0.381-1.179-1.129,0.186c-0.272,0.733-0.859,1.186-1.761,1.351c-1.807,0.438-1.867,0.785-0.182,1.038
	C432.6,523.219,433.626,522.361,433.7,520.174L433.7,520.174L433.7,520.174z M444.976,509.08c0.133-0.789,0.069-1.291-0.171-1.492
	c-0.241-0.211-0.424,0.081-0.553,0.875c-0.483,2.468-1.478,3.205-2.983,2.205c-0.486-0.317-0.638-0.27-0.453,0.132
	c0.131,0.558,0.518,0.869,1.16,0.939C443.598,512.242,444.597,511.358,444.976,509.08L444.976,509.08L444.976,509.08z
	 M436.836,511.632c-0.525-0.568-0.805-0.554-0.823,0.048c-0.024,0.694,0.162,1.049,0.561,1.063
	C438.467,513.855,438.56,513.483,436.836,511.632L436.836,511.632L436.836,511.632z M434.464,525.009
	c-1.282,0.38-2.33,0.28-3.16-0.295c-1.369-0.644-1.193-0.759,0.535-0.354c1.131,0.386,1.954,0.243,2.477-0.438
	c0.515-0.579,0.921-0.713,1.206-0.406C436.099,524.133,435.746,524.636,434.464,525.009L434.464,525.009z M446.147,513.895
	c-0.461,0.432-0.786,0.495-0.976,0.189c-0.188-0.301-0.055-0.674,0.411-1.105c0.411-0.382,0.687-1.167,0.825-2.357
	c0.044-1.191,0.206-1.534,0.482-1.022c0.229,0.552,0.278,1.275,0.148,2.165C446.908,512.755,446.61,513.46,446.147,513.895
	L446.147,513.895L446.147,513.895z M442.131,507.268c-0.168,0.543-0.373,0.685-0.613,0.428c-0.19-0.206-0.256-0.528-0.185-0.976
	c0.16-0.342-0.364-1.013-1.571-1.993c-1.212-0.886-2.627-1.734-4.237-2.532c-1.511-0.9-2.334-1.427-2.479-1.581
	c0.008-0.195,1.154,0.366,3.445,1.688c2.292,1.325,3.775,2.295,4.448,2.914C441.947,506.098,442.347,506.781,442.131,507.268
	L442.131,507.268L442.131,507.268z M443.667,505.976c-0.253,0.146-0.478,0.11-0.668-0.096c-0.201-0.006-0.976-0.58-2.325-1.719
	c-1.31-0.99-2.254-1.648-2.839-1.966c-0.59-0.221-0.809-0.402-0.654-0.548c0.207-0.189,0.526-0.152,0.964,0.11
	c0.781,0.521,1.896,1.26,3.356,2.206c1.462,0.943,2.211,1.442,2.259,1.496C443.95,505.669,443.92,505.84,443.667,505.976
	L443.667,505.976z M423.823,510.509c-0.372-0.809-0.617-1.901-0.743-3.271c-0.127-1.369-0.047-1.901,0.24-1.596
	c0.711,1.069,0.865,1.698,0.459,1.883c-0.26,0.242-0.135,1.04,0.365,2.398C424.981,512.986,424.872,513.183,423.823,510.509
	L423.823,510.509L423.823,510.509z M431.044,500.168c-0.497-0.016-0.638-0.12-0.435-0.312c0.203-0.189,0.429-0.257,0.676-0.201
	C432.316,500.045,432.239,500.213,431.044,500.168L431.044,500.168L431.044,500.168z M432.211,498.791
	c-0.154,0.147-0.303,0.142-0.447-0.016c-0.145-0.151-0.182-0.353-0.128-0.596c0.01-0.295,0.162-0.29,0.445,0.016
	C432.321,498.448,432.363,498.653,432.211,498.791L432.211,498.791L432.211,498.791z M430.424,498.733
	c0.043,0.151-0.132,0.22-0.533,0.206c-0.393-0.011-0.663-0.096-0.808-0.251c-1.149-1.235-0.847-1.371,0.911-0.417
	C430.382,498.485,430.523,498.638,430.424,498.733L430.424,498.733L430.424,498.733z M430.171,497.378
	c0.091,0.301-0.012,0.296-0.292-0.011c-0.338-0.356-0.406-0.532-0.207-0.527C429.816,496.899,429.983,497.078,430.171,497.378
	L430.171,497.378L430.171,497.378z M422.174,504.259c-0.061,0.45-0.457,0.285-1.175-0.486c-1.386-1.487-3.187-2.647-5.396-3.469
	c-0.545-0.068-1.031-0.337-1.465-0.799c-0.238-0.258-0.035-0.398,0.613-0.428c0.691,0.127,1.216,0.02,1.577-0.318
	c0.309-0.285,0.826-0.242,1.562,0.133c0.929,0.483,1.091,0.809,0.484,0.985c-0.653,0.226-1.009,0.411-1.061,0.562
	c-0.163,0.343,0.185,0.353,1.041,0.036c0.949-0.115,1.494-0.1,1.639,0.056c0.097,0.105,0.437,0.366,1.017,0.785
	c0.442,0.262,0.433,0.512-0.026,0.743c-0.557,0.326-0.642,0.597-0.25,0.813c0.342,0.258,0.634,0.269,0.896,0.031
	c0.11-0.295,0.357-0.235,0.739,0.171c0.432,0.469,0.498,0.637,0.206,0.526C422.32,503.745,422.184,503.963,422.174,504.259
	L422.174,504.259L422.174,504.259z M428.11,498.728c0.134,0.451,0.011,0.474-0.375,0.058c-0.331-0.358-0.543-0.738-0.634-1.14
	c-0.033-0.445,0.122-0.49,0.456-0.132C427.847,497.823,428.028,498.224,428.11,498.728L428.11,498.728L428.11,498.728z
	 M419.994,503.778c0.213,0.23,0.395,0.422,0.538,0.578c0.374,0.607,0.162,0.48-0.655-0.396c-0.768-0.818-0.908-1.075-0.422-0.76
	C419.596,503.35,419.779,503.546,419.994,503.778L419.994,503.778z M425.625,497.295c-0.341-0.157-0.362-0.28-0.059-0.372
	c0.254-0.042,0.234-0.165-0.063-0.376c-0.342-0.058-0.547-0.589-0.612-1.587c0.08-0.838,0.19-1.282,0.346-1.332
	c0.148,0.059,0.399,0.637,0.758,1.745C426.626,497.083,426.506,497.727,425.625,497.295L425.625,497.295L425.625,497.295z
	 M428.077,495.447c-0.06,0.341-0.401,0.109-1.017-0.709c-0.616-0.819-0.965-1.572-1.039-2.277c-0.123-0.748-0.012-1.039,0.33-0.879
	c0.337,0.262,0.57,0.711,0.697,1.364c0.172,0.697,0.406,1.207,0.692,1.513C428.072,494.823,428.182,495.149,428.077,495.447
	L428.077,495.447L428.077,495.447z M424.086,494.558c-0.672,0.628-0.98,0.19-0.928-1.296c0.02-0.496,0.184-1.325,0.5-2.481
	c0.311-1.156,0.543-1.759,0.694-1.805c0.845,0.081,0.985,1.008,0.428,2.775c-0.275,0.737-0.419,1.306-0.433,1.703
	C424.218,494.141,424.131,494.512,424.086,494.558L424.086,494.558L424.086,494.558z M415.908,498.005
	c-1.193,1.396-2.365,1.48-3.514,0.246c-0.287-0.305-0.029-0.49,0.766-0.568c0.844,0.081,1.449-0.145,1.816-0.682
	c0.367-0.533,0.691-0.594,0.975-0.186C416.229,497.321,416.217,497.712,415.908,498.005L415.908,498.005L415.908,498.005z
	 M421.963,491.205c-0.798-0.03-0.808-0.402-0.038-1.122c0.408-0.381,0.681-0.97,0.806-1.765c0.074-0.737,0.238-1.134,0.483-1.174
	c0.249,0.058,0.285,0.513,0.105,1.345C423.063,490.373,422.605,491.275,421.963,491.205L421.963,491.205L421.963,491.205z
	 M414.553,496.24c-0.896,1.411-2.313,1.438-4.254,0.074c-1.109-0.886-0.93-1.101,0.547-0.652c1.613,0.804,2.336,0.701,2.17-0.296
	c-0.094-0.202-0.34-0.212-0.742-0.026c-1.725,0.935-2.555,0.558-2.496-1.13c0.005-0.201,0.324-0.063,0.953,0.402
	c0.582,0.421,0.977,0.532,1.18,0.341c0.104-0.094,0.059-0.194-0.138-0.3c-0.247-0.058-0.601-0.543-1.067-1.455
	c-0.465-0.91-0.619-1.439-0.465-1.583c0.154-0.14,0.584,0.322,1.293,1.387c0.855,1.13,1.656,1.724,2.398,1.804
	c0.293,0.11,0.661,0.247,1.104,0.41l0,0C415.025,495.512,414.863,495.855,414.553,496.24L414.553,496.24L414.553,496.24z
	 M420.208,485.919c-0.383-0.405-0.545-0.737-0.488-0.984c0.11-0.289,0.307-0.237,0.594,0.171
	C421.441,486.935,421.407,487.205,420.208,485.919L420.208,485.919L420.208,485.919z M414.621,489.978
	c-0.154,0.146-0.518-0.095-1.094-0.708c-0.527-0.568-0.922-0.678-1.182-0.341c-0.221,0.59-0.288,0.41-0.206-0.526
	c0.024-0.696-0.154-1.25-0.537-1.663c-0.384-0.405-0.488-0.263-0.313,0.438l0.189,0.975l-0.564-0.91
	c-0.377-0.611-0.557-1.116-0.545-1.513c0.006-0.195,0.055-0.195,0.148,0.006c0.035,0.452,0.205,0.526,0.515,0.241
	c0.257-0.236,0.271-0.589,0.036-1.045c-0.186-0.401,0.01-0.294,0.588,0.324c0.525,0.562,1.287,0.863,2.277,0.9
	c1.938,0.121,2.075,0.422,0.417,0.91c-1.055,0.312-1.22,0.854-0.503,1.623C414.518,489.403,414.775,489.835,414.621,489.978
	L414.621,489.978L414.621,489.978z M414.83,488.349l-0.598-0.019c-0.246-0.06-0.265-0.186-0.059-0.376
	c0.205-0.19,0.38-0.211,0.524-0.056l0,0C414.887,488.101,414.929,488.253,414.83,488.349L414.83,488.349L414.83,488.349z
	 M410.545,489.312c-0.168,0.543-0.469,0.584-0.898,0.12c-0.433-0.462-0.824-0.622-1.178-0.484c-0.303,0.186-0.552,0.174-0.744-0.03
	c-0.238-0.252,0.102-0.479,1.029-0.67c0.927-0.189,1.536-0.185,1.826,0.024C410.679,488.371,410.664,488.724,410.545,489.312
	L410.545,489.312L410.545,489.312z M415.285,484.897c-0.18,0.165-0.466,0.146-0.855-0.069c-1.082-0.331-1.131-1.155-0.138-2.467
	c0.418-0.579,0.875-0.86,1.371-0.844c0.545,0.069,0.518,0.19-0.089,0.372c-1.57,0.89-1.775,1.703-0.605,2.437
	C415.359,484.533,415.465,484.727,415.285,484.897L415.285,484.897z M417.256,482.909c-0.008,0.202-0.156,0.248-0.451,0.136
	c-0.352,0.036-0.524,0.105-0.529,0.201c-0.058,0.252-0.261,0.342-0.605,0.281c-0.248-0.056-0.19-0.258,0.172-0.593
	c0.357-0.337,0.686-0.448,0.979-0.337C417.119,482.515,417.266,482.615,417.256,482.909L417.256,482.909L417.256,482.909z
	 M412.883,484.252c-0.025,0.794-0.112,1.111-0.257,0.959c-0.524-0.567-0.337-1.703,0.569-3.409c0.313-0.486,0.541-0.602,0.681-0.348
	c0.092,0.299-0.046,0.617-0.405,0.952C413.1,483.042,412.906,483.654,412.883,484.252L412.883,484.252L412.883,484.252z
	 M408.819,487.463l-1.196,0.111l0.904-0.27c1.607-0.538,1.568-0.79-0.124-0.749c-1.196,0.058-1.513-0.175-0.942-0.703
	c0.253-0.242,0.727-0.195,1.412,0.126C411.071,486.995,411.055,487.494,408.819,487.463L408.819,487.463L408.819,487.463z
	 M411.902,484.59c-0.154,0.147-0.268-0.162-0.342-0.908c-0.071-0.745-0.052-1.366,0.066-1.861c0.185-1.041,0.518-1.296,0.996-0.785
	c0.143,0.15,0.035,0.396-0.326,0.733c-0.309,0.285-0.425,0.779-0.35,1.477C412.072,483.996,412.058,484.448,411.902,484.59
	L411.902,484.59L411.902,484.59z M410.017,485.198c-0.699,0.069-1.271,0.08-1.716,0.016c-2.432-0.135-2.869-0.3-1.324-0.495
	c0.596,0.02,0.748-0.097,0.46-0.358c-0.29-0.257-0.735-0.396-1.328-0.417c-0.595-0.019-0.899,0.166-0.915,0.563
	c-0.014,0.396-0.115,0.491-0.307,0.286c-0.191-0.201-0.104-0.572,0.26-1.109c0.686-1.018,1.848-0.903,3.494,0.346l0,0
	C409.605,484.856,410.065,485.247,410.017,485.198L410.017,485.198L410.017,485.198z M414.422,480.8
	c-0.207,0.19-0.56,0.063-1.068-0.375c-0.506-0.438-0.754-0.805-0.744-1.106c0.014-0.396,0.09-0.371,0.219,0.086
	c0.185,0.402,0.548,0.689,1.092,0.86C414.408,480.48,414.575,480.655,414.422,480.8L414.422,480.8L414.422,480.8z M410.851,482.689
	c0.271,0.806,0.026,0.698-0.732-0.326c-0.621-0.763-0.944-1.472-0.97-2.12c0.056-1.687,0.65-2.286,1.777-1.802
	c1.074,0.537,1.043,0.807-0.102,0.817c-1.146,0.11-1.467,0.644-0.952,1.607c0.087,0.301,0.21,0.402,0.364,0.312
	c0.15-0.096,0.209-0.316,0.174-0.67c0.005-0.195,0.133-0.366,0.39-0.506c0.646-0.024,0.707,0.347,0.184,1.127
	C410.658,481.812,410.614,482.333,410.851,482.689L410.851,482.689L410.851,482.689z M406.016,486.619
	c-0.154,0.147-0.304,0.142-0.444-0.015c-0.193-0.202-0.263-0.333-0.212-0.375c0.104-0.101,0.301-0.092,0.596,0.02
	C406.251,486.257,406.272,486.383,406.016,486.619L406.016,486.619L406.016,486.619z M408.186,482.15
	c0.52,0.763,0.514,1.016-0.024,0.742c-0.392-0.21-1.108-0.311-2.154-0.295c-1.096,0.06-1.515-0.03-1.258-0.267
	c0.155-0.146,0.629-0.201,1.423-0.175l1.27-0.03l-0.729-0.473c-0.59-0.223-0.756-0.453-0.5-0.69c0.154-0.146-0.184-0.358-1.02-0.633
	c-0.742-0.174-1.313-0.482-1.721-0.913c-0.406-0.438-1.561-1.936-3.459-4.484c-4.613-5.979-9.189-11.608-13.726-16.885
	c-1.384-1.684-3.017-3.623-4.905-5.799c-1.888-2.181-3.403-3.984-4.545-5.415c-3.053-3.688-5.587-6.605-7.598-8.767
	c-2.253-2.416-3.418-3.874-3.5-4.371c0.298-1.434-0.16-1.819-1.376-1.17c-0.354,0.236-0.419-0.086-0.19-0.977
	c0.275-0.733,0.409-1.05,0.406-0.953c-0.013,0.396,0.309,0.433,0.964,0.109c0.656-0.226,0.825-0.146,0.515,0.243
	c-0.412,0.38-0.424,0.778-0.042,1.191c0.289,0.305,0.676,0.518,1.171,0.636c0.448-0.036,0.975,0.527,1.582,1.692
	c1.126,1.931,3.242,4.688,6.346,8.275c3.107,3.59,8.134,9.109,15.082,16.562c4.025,4.317,7.498,8.018,10.426,11.103
	c2.924,3.084,4.51,4.658,4.755,4.711c0.485,0.318,0.662,0.249,0.526-0.2c-0.031-0.453,0.31-0.29,1.028,0.482
	c0.718,0.77,1.322,1.313,1.808,1.63c0.289,0.211,0.043,0.201-0.744-0.025l-1.328-0.348l-0.127,1.411
	c-0.083,0.944-0.026,1.518,0.164,1.725c0.143,0.156,0.31,0.432,0.493,0.833C407.286,480.827,407.617,481.332,408.186,482.15
	L408.186,482.15L408.186,482.15z M405.317,478.84c0.269-0.485,0.257-0.984-0.023-1.492c-0.478-0.513-0.562-0.912-0.253-1.201
	c0.204-0.19,0.068-0.49-0.416-0.91c-1.697-1.207-3.268-2.503-4.71-3.896c-1.441-1.392-3.646-3.728-6.616-7.019
	c-2.536-2.821-3.972-4.412-4.305-4.772c-0.335-0.358,0.259,0.38,1.785,2.225c2.675,3.174,5.471,6.354,8.391,9.539
	c2.921,3.185,4.504,4.804,4.751,4.864c0.195,0.104,0.43,0.538,0.702,1.291c0.272,0.752,0.356,1.181,0.251,1.276
	c-0.154,0.146-0.467-0.142-0.938-0.85c-0.474-0.712-0.786-1-0.94-0.854c-0.617,0.572-0.196,1.286,1.268,2.13
	C404.701,479.447,405.054,479.33,405.317,478.84L405.317,478.84z M408.393,480.516c-0.032,0.896-0.142,1.14-0.326,0.733
	c-0.14-0.251-0.144-0.824-0.014-1.712c0.074-0.745,0.361-1.106,0.858-1.093c0.396,0.018,0.413,0.191,0.058,0.522
	C408.607,479.304,408.414,479.822,408.393,480.516L408.393,480.516L408.393,480.516z M405.299,481.523
	c-0.305,0.091-0.596-0.02-0.885-0.326c-0.24-0.257-0.061-0.376,0.534-0.358C405.943,480.874,406.059,481.101,405.299,481.523
	L405.299,481.523L405.299,481.523z M409.492,476.752c0.28,0.507,0.278,0.603-0.011,0.296c-0.333-0.363-0.726-0.623-1.165-0.789
	c-0.392-0.211-0.39-0.312,0.01-0.295C408.725,475.978,409.112,476.24,409.492,476.752L409.492,476.752L409.492,476.752z
	 M407.309,479.51c-0.206,0.19-0.326,0.058-0.361-0.386c-0.085-1.845,0.305-2.303,1.169-1.377c0.095,0.106,0.015,0.275-0.242,0.513
	c-0.448,0.035-0.604,0.232-0.469,0.58C407.494,479.144,407.463,479.366,407.309,479.51L407.309,479.51L407.309,479.51z
	 M403.574,481.834c0.035,0.354-0.47-0.136-1.517-1.467c-2.764-3.377-2.855-3.684-0.267-0.903
	C402.846,480.596,403.439,481.386,403.574,481.834L403.574,481.834L403.574,481.834z M399.723,476.783
	c0.281,0.506,0.016,0.326-0.8-0.549c-0.864-0.929-1.003-1.18-0.422-0.764C399.031,475.937,399.439,476.374,399.723,476.783
	L399.723,476.783L399.723,476.783z M401.461,469.683l2.223,2.542l-1.734-1.555c-1.21-0.988-5.049-4.924-11.519-11.811
	c-6.469-6.891-10.25-11.069-11.344-12.55l-1.78-2.377l1.376,1.171c0.726,0.572,0.393,0.109-0.996-1.377
	c-1.582-1.698-2.369-2.642-2.361-2.842c4.838,5.191,8.743,9.379,11.714,12.562c2.971,3.189,5.678,6.145,8.116,8.86
	c2.441,2.719,3.71,4.127,3.805,4.234l0,0C399.003,466.789,399.835,467.839,401.461,469.683L401.461,469.683L401.461,469.683z
	 M395.425,463.206c-0.859-1.017-1.77-1.992-2.731-2.925c-0.48-0.416-0.029,0.122,1.361,1.613
	C395.445,463.384,395.9,463.825,395.425,463.206L395.425,463.206L395.425,463.206z M385.217,452.264
	c-0.188-0.307-0.38-0.458-0.579-0.469c-0.35,0.037-0.278,0.166,0.211,0.382C385.184,452.536,385.308,452.568,385.217,452.264
	L385.217,452.264L385.217,452.264z M381.913,448.717c-0.237-0.354-0.525-0.666-0.862-0.919c-0.487-0.317-0.394-0.115,0.275,0.601
	C381.901,449.021,382.098,449.124,381.913,448.717L381.913,448.717L381.913,448.717z M397.079,473.48
	c0.242,0.263,0.289,0.337,0.142,0.232c-0.145-0.105-0.435-0.386-0.864-0.849c-0.334-0.365-0.563-0.63-0.681-0.808
	c-0.118-0.176-0.081-0.166,0.11,0.04C396.269,472.511,396.697,472.974,397.079,473.48L397.079,473.48L397.079,473.48z
	 M394.439,470.036c0.474,0.712,0.206,0.532-0.8-0.548c-1.006-1.081-1.171-1.362-0.491-0.839
	C393.628,469.066,394.059,469.527,394.439,470.036L394.439,470.036L394.439,470.036z M391.87,466.816
	c0.24,0.263,0.272,0.323,0.105,0.19c-0.172-0.132-0.471-0.428-0.903-0.89c-0.383-0.412-0.635-0.703-0.75-0.886
	c-0.118-0.174-0.105-0.19,0.039-0.035C390.938,465.714,391.439,466.257,391.87,466.816L391.87,466.816L391.87,466.816z
	 M388.368,462.443c0.24,0.257,0.429,0.463,0.574,0.612c0.28,0.514,0.016,0.326-0.801-0.548c-0.864-0.925-1.003-1.176-0.422-0.759
	C387.913,461.956,388.13,462.188,388.368,462.443L388.368,462.443z M386.084,459.53c0.28,0.508,0.085,0.402-0.587-0.322
	c-0.576-0.617-0.668-0.813-0.278-0.602C385.605,458.914,385.894,459.221,386.084,459.53L386.084,459.53L386.084,459.53z
	 M381.284,453.918c0.087,0.301-0.013,0.301-0.299-0.011c-0.334-0.364-0.403-0.532-0.205-0.527
	C380.927,453.434,381.093,453.615,381.284,453.918L381.284,453.918L381.284,453.918z M372.981,443.936
	c0.141,0.251-0.028,0.125-0.506-0.393c-0.527-0.562-0.695-0.794-0.5-0.688C372.315,443.116,372.649,443.478,372.981,443.936
	L372.981,443.936L372.981,443.936z M374.658,440.783c-0.013,0.402-0.162,0.348-0.442-0.162c-0.144-0.157-0.477-0.568-1-1.232
	c-0.524-0.664-1.071-1.351-1.641-2.07c-1.52-2.04-2.325-3.21-2.412-3.516c-0.183-0.502-0.109-0.521,0.227-0.064
	c0.418,0.765,1.347,1.966,2.781,3.601C373.503,438.982,374.333,440.133,374.658,440.783L374.658,440.783L374.658,440.783z
	 M373.411,438.057c0.185,0.406,0.087,0.401-0.299-0.01c-0.334-0.359-0.403-0.533-0.204-0.526
	C373.056,437.572,373.223,437.756,373.411,438.057L373.411,438.057L373.411,438.057z M369.339,439.407
	c0.281,0.508,0.036,0.353-0.73-0.474c-0.767-0.824-0.908-1.075-0.422-0.764C368.621,438.536,369.004,438.952,369.339,439.407
	L369.339,439.407L369.339,439.407z M370.91,434.911c0.093,0.206-0.004,0.201-0.296-0.01c-0.383-0.406-0.429-0.559-0.134-0.453
	C370.782,434.364,370.926,434.521,370.91,434.911L370.91,434.911L370.91,434.911z M366.391,436.249
	c-0.007,0.2-0.129,0.17-0.37-0.091c-0.391-0.211-0.435-0.358-0.133-0.447l0,0L366.391,436.249L366.391,436.249z M365.168,434.937
	c-0.146-0.056-0.409-0.386-0.785-1c-0.229-0.555-0.079-0.549,0.445,0.02C365.74,434.932,365.853,435.264,365.168,434.937
	L365.168,434.937L365.168,434.937z M367.234,431.284c-0.206,0.184-0.406,0.231-0.6,0.126c-0.295-0.11-0.314-0.287-0.057-0.522
	c0.308-0.289,0.558-0.331,0.749-0.126C367.472,430.919,367.44,431.087,367.234,431.284L367.234,431.284L367.234,431.284z
	 M367.589,429.652c0.091,0.3-0.082,0.221-0.512-0.242c-0.384-0.412-0.429-0.559-0.134-0.453
	C367.281,429.219,367.497,429.449,367.589,429.652L367.589,429.652L367.589,429.652z M357.066,427.793
	c0.231,0.557,0.201,0.678-0.087,0.372c-0.334-0.363-0.697-0.647-1.088-0.859c-0.442-0.165-0.462-0.287-0.062-0.375
	C356.127,426.943,356.538,427.23,357.066,427.793L357.066,427.793L357.066,427.793z M355.36,429.677
	c0.041,0.247-0.036,0.321-0.231,0.214c-0.288-0.311-0.438-0.268-0.454,0.133c-0.104,0.196-0.179,0.165-0.221-0.087
	c-0.087-0.294-0.378-0.507-0.871-0.622c-0.25,0.042-0.337,0.025-0.26-0.047c0.078-0.073,0.266-0.104,0.564-0.095
	C354.582,429.201,355.073,429.365,355.36,429.677L355.36,429.677L355.36,429.677z M360.67,425.011
	c-0.106,0.1-0.275,0.021-0.515-0.237c-0.24-0.259-0.257-0.483-0.052-0.676c0.103-0.096,0.247,0.012,0.438,0.313l0,0
	C360.631,424.614,360.675,424.813,360.67,425.011L360.67,425.011L360.67,425.011z M364.076,421.402
	c-0.206,0.19-0.355,0.236-0.454,0.134c0.008-0.198,0.039-0.37,0.093-0.52c0.01-0.296,0.136-0.316,0.375-0.059l0,0
	C364.235,421.107,364.229,421.257,364.076,421.402L364.076,421.402L364.076,421.402z M357.974,423.202
	c-1.852,1.729-3.153,2.752-3.913,3.073c-0.807,0.367-1.751,1.056-2.829,2.061l-1.618,1.513l-1.86-2.302
	c-1.762-2.2-3.604-4.665-5.52-7.389c-1.919-2.728-2.873-4.241-2.863-4.539c0.016-0.396,0.419-0.585,1.214-0.557
	c0.787,0.231,1.806,0.913,3.062,2.051l2.021,1.86l1.309-1.221c0.824-0.771,1.165-1.328,1.029-1.681
	c-1.281-1.78-1.77-2.721-1.469-2.813c0.252-0.04,0.592,0.171,1.023,0.635c0.384,0.41,0.651,0.546,0.805,0.402
	c0.154-0.146,0.451-0.083,0.887,0.176c0.489,0.317,1.145-0.008,1.973-0.975l1.395-1.445l-1.149-1.232
	c-0.813-0.974-1.068-1.503-0.765-1.594c0.301-0.084,1.032,0.338,2.192,1.269c0.48,0.417,1.211,0.168,2.188-0.744l1.464-1.363
	l-1.715-2.149c-1.237-1.534-1.688-2.121-1.353-1.763c0.386,0.314,0.512,0.245,0.377-0.211c-0.088-0.297,0.064-0.394,0.458-0.277
	c0.34,0.259,0.64,0.171,0.906-0.268c0.367-0.634,2.521,1.157,6.448,5.371l4.383,4.701l-1.463,1.364
	c-0.926,0.863-1.395,1.442-1.405,1.743c-0.01,0.297-0.324,0.73-0.939,1.309c-0.673,0.824-0.967,1.338-0.875,1.538
	c-0.013,0.396-0.216,0.485-0.607,0.275c-0.396-0.013-0.523,0.055-0.379,0.209C360.629,420.489,359.823,421.479,357.974,423.202
	L357.974,423.202z"/>
<path fill="#00C2EF" d="M327.83,522.099c1.328,1.282,2.493,1.4,3.495,0.364c0.165-0.172,0.847-0.07,2.045,0.306
	c1.252,0.316,2.134,0.386,2.642,0.206c0.45-0.231,1.412-0.363,2.886-0.392c2.269,0.08,4.713-1.301,7.331-4.126
	c2.786-2.885,5.065-7.15,6.837-12.799c0.857-2.848,2.354-4.919,4.487-6.203c1.231-0.924,2.124-1.793,2.678-2.598
	c0.663-0.918,1.615-1.672,2.853-2.262c1.293-0.648,2.132-1.34,2.518-2.086c0.44-0.695,1.023-1.406,1.747-2.162
	c0.554-0.806,1.044-1.888,1.477-3.261c0.144-1.308,0.414-2.161,0.805-2.567c0.388-0.396,0.718-1.028,0.988-1.883
	c1.407-3.886,12.115-17.458,32.131-40.72c6.115-7.144,10.027-11.334,11.734-12.586s4.209-1.734,7.506-1.45
	c4.769,0.372,9.317-0.591,13.646-2.873c1.517-0.88,3.848-2.974,6.998-6.292c3.146-3.316,5.604-6.295,7.37-8.936
	c4.033-6.14,6.295-11.48,6.783-16.025c0.484-4.66,0.396-8.146-0.268-10.46c-0.532-1.179-1.489-2.329-2.868-3.44
	c-1.381-1.108-2.246-1.831-2.591-2.167c-2.633-1.544-6.646-1.317-12.028,0.679c-5.385,1.994-10.635,4.949-15.757,8.867
	s-9.326,8.331-12.617,13.236c-3.289,4.908-4.103,9.5-2.438,13.782c1.196,3.496,1.048,6.364-0.443,8.604l-0.567,1.793
	c-0.1,0.8-0.258,1.313-0.482,1.544c-0.338,0.006-1.949,1.96-4.83,5.867c-2.945,3.512-8.625,9.652-17.037,18.424
	c-8.412,8.766-14.487,14.911-18.225,18.438c-2.681,2.426-4.442,3.879-5.286,4.345c-0.844,0.467-2.645,1.15-5.41,2.051
	c-2.932,0.961-4.247,2.03-3.941,3.216c0.115,0.342-0.103,0.689-0.664,1.033c-0.674,0.354-1.202,1.07-1.579,2.156
	c-0.322,1.023-0.821,1.773-1.493,2.236c-0.841,0.526-2.085,2.335-3.735,5.431c-0.607,0.977-1.839,1.845-3.696,2.613
	c-13.636,5.231-18.776,12.978-15.421,23.242c0.123,0.679,0.309,1.416,0.551,2.203c0.239,0.791,0.45,1.441,0.63,1.945l0,0
	C326.66,520.245,327.075,521.145,327.83,522.099L327.83,522.099L327.83,522.099z M329.411,520.109
	c-1.217-1.398-1.662-2.492-1.335-3.289c0.36-2.104,0.674-2.025,0.942,0.236c0.018,1.134,0.627,2.004,1.831,2.607
	c0.688,0.326,0.69,0.555,0.013,0.686C330.067,520.356,329.584,520.281,329.411,520.109L329.411,520.109L329.411,520.109z
	 M326.646,512.76c-0.007-0.343,0.25-0.263,0.77,0.242c0.406,0.619,0.497,0.93,0.272,0.934
	C326.838,514.224,326.491,513.839,326.646,512.76L326.646,512.76L326.646,512.76z M330.625,516.603
	c-0.172-0.165-0.064-0.453,0.326-0.854c0.334-0.347,0.53-0.491,0.586-0.438c0.057,0.054-0.023,0.312-0.242,0.77
	C330.965,516.544,330.741,516.713,330.625,516.603L330.625,516.603L330.625,516.603z M329.478,514.156
	c-0.682,0.011-0.91-0.097-0.687-0.326c0.167-0.174,0.592-0.268,1.271-0.281c0.795,0.1,1.111,0.236,0.943,0.41
	C330.893,514.076,330.383,514.141,329.478,514.156L329.478,514.156L329.478,514.156z M330.207,512.016
	c-0.626,0.063-0.656-0.074-0.093-0.422c1.009-0.697,1.484-1.019,1.43-0.959c-0.056,0.054,0.247-0.435,0.911-1.467
	c0.326-0.573,0.442-0.519,0.342,0.165c0.008,0.568-0.265,1.14-0.821,1.719C331.417,511.625,330.828,511.947,330.207,512.016
	L330.207,512.016L330.207,512.016z M326.474,507.74c0.042-0.733,0.156-0.678,0.343,0.166c0.123,0.678,0.612,1.039,1.465,1.08
	c0.679-0.011,1.24-0.306,1.685-0.879c0.329-0.689,0.553-0.749,0.676-0.181c0.02,1.131-0.623,1.683-1.926,1.649
	C327.186,509.658,326.438,509.047,326.474,507.74L326.474,507.74L326.474,507.74z M329.594,511.093
	c-0.396,0.063-0.286-0.111,0.332-0.519c1.458-0.929,1.795-0.996,1.016-0.186C330.607,510.734,330.157,510.966,329.594,511.093
	L329.594,511.093L329.594,511.093z M336.151,516.251c0.38-0.86,0.854-1.401,1.417-1.645c0.503-0.289,0.399,0.11-0.319,1.203
	C335.86,517.593,335.494,517.737,336.151,516.251L336.151,516.251L336.151,516.251z M335.124,515.928
	c-0.45,0.237-0.453,0.122-0.007-0.342c0.391-0.401,0.585-0.491,0.591-0.262C335.541,515.606,335.348,515.808,335.124,515.928
	L335.124,515.928L335.124,515.928z M338.334,519.531c-0.864-0.832-0.741-1.828,0.373-2.983c0.669-0.694,0.826-1.433,0.471-2.219
	c-0.354-0.789-0.923-0.944-1.708-0.484c-0.618,0.412-0.875,0.387-0.767-0.067c0.471-2.104,1.253-2.854,2.341-2.251
	c1.204,0.713,1.435-0.623,0.697-4.015c-0.357-1.018-0.399-1.662-0.118-1.954c1.335-1.383,0.823-1.434-1.536-0.142
	c-1.574,0.819-1.87,1.703-0.89,2.651c0.692,0.671,1.016,1.313,0.97,1.939c-0.272,0.629-0.673,0.463-1.198-0.485
	c-0.697-0.901-1.211-1.059-1.54-0.486c-0.386,0.635-0.672,0.639-0.85,0.018c-0.422-1.411-0.656-1.694-0.696-0.839
	c-0.165,0.402-0.477,0.433-0.935,0.099c-0.518-0.269-0.884-0.294-1.106-0.062c-0.224,0.231-0.34,0.121-0.347-0.337
	c0.046-0.507-0.101-0.93-0.448-1.267c-0.346-0.331-0.409-0.611-0.185-0.844c0.334-0.347,0.357-0.659,0.069-0.939
	c-0.29-0.28-0.542-0.19-0.761,0.27c-0.275,0.514-0.708,0.097-1.299-1.254c-0.354-0.905-0.365-1.522-0.031-1.875
	c0.278-0.286,0.479-0.09,0.604,0.59c0.371,1.697,1.464,2.637,3.282,2.834c1.819,0.198,2.544-0.496,2.176-2.081
	c-0.007-0.453-0.29-0.392-0.846,0.185c-0.502,0.518-0.87,0.669-1.098,0.446c-0.231-0.226-0.576-0.44-1.035-0.663
	c-0.512-0.162-0.779-0.785-0.798-1.86c-0.021-1.082,0.198-1.562,0.656-1.456c0.34,0.104,0.507-0.181,0.494-0.86
	c-0.01-0.568,0.154-0.912,0.494-1.029c0.17,0.056,0.229,0.222,0.178,0.508c-0.76,2.055-0.849,3.36-0.27,3.918
	c1.324,1.281,1.973,0.954,1.939-0.971c-0.021-1.133,1.656-2.583,5.029-4.343c4.89-2.524,6.236-3.515,4.033-2.962
	c-0.453,0.12-0.597,0.035-0.43-0.252c0.168-0.171,0.477-0.262,0.932-0.27c0.224-0.007,0.955-0.411,2.188-1.228
	c0.45-0.238,0.914-0.514,1.39-0.833c0.476-0.323,0.828-0.544,1.052-0.658c0.279-0.175,0.36-0.544,0.236-1.111
	c-0.291-0.392-0.345-1.056-0.162-1.993c0.181-0.941,0.442-1.412,0.782-1.418c0.113-0.005,0.121,0.507,0.028,1.528
	c-0.21,1.027-0.204,1.537,0.026,1.533c0.227-0.007,0.307-0.263,0.242-0.77c-0.064-0.397,0.103-0.568,0.501-0.522
	c0.455,0.106,0.56-0.29,0.319-1.195c-0.358-0.901-0.59-1.292-0.7-1.176c-0.167,0.172-0.203-0.141-0.103-0.934
	c0.101-0.685,0.432-1.201,0.996-1.549c0.334-0.349,0.471-0.55,0.414-0.607c-0.231-0.221-0.237-0.502-0.016-0.85
	c0.162-0.396,0.591-0.267,1.284,0.402c1.15,1.001,2.256,0.844,3.311-0.482c0.607-0.86,1.078-1.577,1.41-2.152
	c0.334-0.347,0.64-0.552,0.923-0.609c0.337-0.117,0.628,0.214,0.869,1.005c0.126,0.794,0.363,1.356,0.71,1.693
	c0.344,0.33,0.438,0.759,0.277,1.271c-0.108,0.458,0.152,0.702,0.779,0.749c1.815,0.085,2.701,0.555,2.66,1.401
	c-0.108,0.343-0.332,0.458-0.673,0.353c-0.456-0.105-1.075,0.075-1.863,0.543c-1.126,0.479-3.441,2.758-6.942,6.843
	c-3.733,3.979-5.788,6.452-6.166,7.428c-0.71,1.658-2.256,4.068-4.637,7.23c-2.107,2.874-3.116,5.245-3.025,7.116
	c0.016,0.911-0.254,1.655-0.81,2.226c-0.448,0.463-0.72,1.091-0.818,1.888C338.674,519.526,338.563,519.753,338.334,519.531
	L338.334,519.531L338.334,519.531z M335.77,504.179c0.059,0.28-0.16,0.682-0.662,1.2c-0.668,0.695-1.115,0.983-1.345,0.874
	c-0.286-0.053-0.008-0.513,0.826-1.375C335.369,504.073,335.762,503.836,335.77,504.179L335.77,504.179L335.77,504.179z
	 M336.737,501.098c-0.01-0.451,0.548-0.975,1.674-1.56l1.683-1.052l-1.171,1.212c-2.402,2.14-2.868,3.084-1.396,2.835
	c0.337-0.122,0.841-0.527,1.51-1.222c0.501-0.52,1.705-1.418,3.611-2.699c1.175-0.869,2.669-2.192,4.483-3.948
	c1.811-1.764,2.549-2.642,2.21-2.637c-0.229,0.005-1.234,0.874-3.017,2.609c-1.618,1.671-3.046,2.809-4.28,3.39
	c-2.76,1.24-3.045,1.134-0.856-0.322c0.785-0.469,0.967-0.658,0.542-0.563c-0.424,0.092-1.256,0.485-2.49,1.19
	c-2.812,1.412-4.013,2.482-3.602,3.21C336.05,502.502,336.416,502.35,336.737,501.098L336.737,501.098L336.737,501.098z
	 M342.703,496.824c0.337-0.121,0.504-0.29,0.501-0.52c-0.004-0.23-0.172-0.165-0.507,0.176
	C342.249,496.946,342.252,497.058,342.703,496.824L342.703,496.824L342.703,496.824z M344.047,495.949
	c0.337-0.23,0.587-0.49,0.754-0.779c0.051-0.171-0.116-0.055-0.504,0.352C343.963,495.865,343.877,496.008,344.047,495.949
	L344.047,495.949L344.047,495.949z M346.565,493.864c0.448-0.237,0.501-0.406,0.159-0.513l-0.762,0.267l0,0
	C345.241,494.367,345.439,494.453,346.565,493.864L346.565,493.864L346.565,493.864z M351.237,493.527
	c0.839-0.638,2.176-2.108,4.008-4.411c1.832-2.303,2.662-3.532,2.487-3.699c-0.172-0.172-0.368-0.026-0.587,0.432
	c-0.275,0.519-1.582,2.094-3.917,4.748C350.839,493.419,350.174,494.396,351.237,493.527L351.237,493.527L351.237,493.527z
	 M352.765,488.313c0.772-1.15,1.351-2.182,1.731-3.093c0.38-0.913,0.211-0.825-0.506,0.261c-0.442,0.58-0.78,0.808-1.008,0.698
	c-0.229-0.105-0.785,0.584-1.665,2.076c-0.882,1.486-1.376,2.517-1.479,3.084C349.303,493.16,350.278,492.154,352.765,488.313
	L352.765,488.313L352.765,488.313z M351.791,486.202c0.041-0.854,0.319-1.254,0.831-1.207c1.98-0.206,2.283-0.693,0.91-1.466
	c-1.605-0.881-2.357-0.157-2.259,2.169C351.242,487.343,351.417,487.509,351.791,486.202L351.791,486.202L351.791,486.202z
	 M355.509,484.776c0.11-0.006,0.304-0.433,0.574-1.286c0.749-2.628,0.576-2.561-0.506,0.174
	C355.19,484.406,355.17,484.781,355.509,484.776L355.509,484.776L355.509,484.776z M334.311,513.307
	c-0.281,0.174-0.424,0.122-0.427-0.165c-0.007-0.281,0.132-0.568,0.409-0.86c0.334-0.342,0.476-0.316,0.426,0.08
	C334.785,512.875,334.648,513.186,334.311,513.307L334.311,513.307L334.311,513.307z M333.429,511.453
	c-0.679,0.236-0.877,0.21-0.597-0.08c0.334-0.342,0.882-0.567,1.646-0.664c0.765-0.101,1.151,0.02,1.155,0.364
	c-0.165,0.285-0.391,0.346-0.676,0.179C334.613,511.147,334.103,511.211,333.429,511.453L333.429,511.453L333.429,511.453z
	 M327.682,506.398c-0.435-0.527-0.571-0.996-0.406-1.397c0.162-0.396,0.417-0.317,0.77,0.246c0.35,0.564,0.612,0.924,0.785,1.094
	c0.116,0.11,0.09,0.256-0.077,0.426C328.472,507.056,328.114,506.93,327.682,506.398L327.682,506.398z M340.956,518.553
	c-0.231-0.227-0.263-0.422-0.096-0.597c0.054-0.055,0.195-0.146,0.419-0.262c0.116,0.111,0.119,0.336,0.013,0.684l0,0
	C341.182,518.6,341.069,518.663,340.956,518.553L340.956,518.553L340.956,518.553z M341.503,515.906
	c-0.34,0.116-0.257-0.085,0.244-0.596c0.558-0.579,0.726-0.637,0.51-0.179C342.033,515.468,341.783,515.727,341.503,515.906
	L341.503,515.906L341.503,515.906z M342.713,516.904c-0.289-0.28-0.322-0.538-0.098-0.764c0.168-0.174,0.454-0.063,0.857,0.323
	c0.46,0.446,0.522,0.672,0.182,0.678C343.314,517.259,343,517.18,342.713,516.904L342.713,516.904L342.713,516.904z
	 M330.028,501.812c0.046-0.513,0.101-0.513,0.17-0.005c0.066,0.623,0.072,0.965,0.019,1.018
	C329.882,503.171,329.817,502.831,330.028,501.812L330.028,501.812L330.028,501.812z M343.765,513.74
	c-0.983-0.949-1-1.914-0.051-2.896c0.167-0.173,0.337-0.173,0.509-0.01c0.231,0.221,0.263,0.422,0.095,0.592
	c-0.221,0.236-0.326,0.744-0.312,1.539C343.901,513.532,343.821,513.788,343.765,513.74L343.765,513.74L343.765,513.74z
	 M345.57,514.809c-0.286-0.052-0.316-0.189-0.093-0.421c0.167-0.175,0.391-0.231,0.676-0.181c0.34,0.105,0.43,0.248,0.263,0.418
	C346.193,514.853,345.91,514.919,345.57,514.809L345.57,514.809L345.57,514.809z M333.848,501.321
	c-0.29-0.279-0.437-0.532-0.439-0.758c-0.074-0.966,1.296-2.094,4.11-3.392c2.923-1.527,2.645-1.18-0.833,1.035
	c-1.629,0.995-2.436,1.828-2.423,2.507C334.332,501.448,334.193,501.652,333.848,501.321L333.848,501.321L333.848,501.321z
	 M345.696,512.342c-0.46-0.275-0.522-0.589-0.188-0.934c0.168-0.171,0.396-0.122,0.685,0.162c1.155,1.111,2.72-1.894,4.692-9.019
	c0.795-3.135,1.513-4.392,2.148-3.782c0.288,0.28,0.262,0.481-0.075,0.596c-0.452,0.125-1.081,1.582-1.883,4.375
	c-2.006,5.308-3.373,8.225-4.101,8.745C346.579,512.669,346.154,512.612,345.696,512.342L345.696,512.342z M347.847,513.664
	c-0.172-0.165-0.177-0.336-0.01-0.513c0.167-0.17,0.336-0.17,0.512-0.006c0.229,0.222,0.262,0.423,0.096,0.594
	C348.276,513.915,348.076,513.882,347.847,513.664L347.847,513.664L347.847,513.664z M346.271,511.142
	c-0.173-0.17-0.064-0.458,0.326-0.86c0.054-0.055,0.494-0.804,1.322-2.235c0.432-1.138,0.761-1.713,0.99-1.718
	c0.335-0.342,0.062,0.343-0.815,2.055c-0.978,2.401-1.363,3.261-1.145,2.577C346.668,511.246,346.446,511.306,346.271,511.142
	L346.271,511.142L346.271,511.142z M334.541,497.135c0.334-0.341,0.785-0.578,1.348-0.702c0.565-0.128,0.455,0.052-0.329,0.518
	C334.041,497.938,333.704,498.005,334.541,497.135L334.541,497.135L334.541,497.135z M340.305,495.929
	c-0.452,0.173-0.565,0.151-0.343-0.08c0.389-0.402,0.756-0.606,1.096-0.612c0.396-0.059,0.537-0.035,0.427,0.075
	C341.148,495.548,340.752,495.754,340.305,495.929L340.305,495.929z M343.067,493.325l-1.184,0.532l1.26-0.959
	c1.173-0.984,1.623-1.161,1.354-0.532C344.333,492.767,343.857,493.086,343.067,493.325L343.067,493.325L343.067,493.325z
	 M352.726,500.817c0.046-0.507,0.104-0.513,0.171-0.006c0.066,0.628,0.074,0.965,0.018,1.024
	C352.69,502.069,352.629,501.727,352.726,500.817L352.726,500.817L352.726,500.817z M345.513,492.181
	c-0.501,0.519-0.427-0.021,0.227-1.623c0.81-2.335,1.615-3.4,2.413-3.19c0.227,0,0.144,0.141-0.247,0.434
	c-0.51,0.18-0.592,0.321-0.25,0.427c0.453-0.005,0.345,0.221-0.326,0.689c-0.787,0.469-0.926,0.723-0.412,0.774
	c0.396,0.052,0.423,0.136,0.087,0.251c-0.283,0.058-0.503,0.353-0.663,0.864C346.347,491.258,346.071,491.713,345.513,492.181
	L345.513,492.181L345.513,492.181z M354.157,499.857c-0.283,0.06-0.286-0.052-0.005-0.342c0.278-0.285,0.473-0.375,0.589-0.268
	C354.576,499.535,354.38,499.736,354.157,499.857L354.157,499.857L354.157,499.857z M347.201,491.301
	c-0.231-0.226-0.124-0.568,0.322-1.029c0.388-0.401,0.56-0.347,0.514,0.164c-0.221,0.457-0.385,0.744-0.496,0.864
	C347.543,491.523,347.431,491.523,347.201,491.301L347.201,491.301L347.201,491.301z M354.368,497.384
	c-0.738-0.047-0.857-0.326-0.355-0.843c0.725-0.749,1.006-0.869,0.846-0.359c0.059,0.286,0.373,0.363,0.938,0.243
	c0.567-0.127,0.654,0.02,0.263,0.415C355.615,497.311,355.049,497.486,354.368,497.384L354.368,497.384L354.368,497.384z
	 M356.006,498.633c-0.895,0.696-0.756,0.441,0.412-0.77c0.949-0.979,1.507-1.392,1.683-1.227c0.172,0.171,0.036,0.486-0.41,0.944
	l0,0L356.006,498.633L356.006,498.633z M355.851,494.638c0.334-0.347,0.753-0.584,1.266-0.702c0.507-0.121,0.594-0.012,0.26,0.336
	c-0.281,0.286-0.02,0.422,0.774,0.41c0.679,0.101,0.91,0.27,0.69,0.497c-0.392,0.406-0.986,0.557-1.78,0.458
	C355.587,495.662,355.183,495.332,355.851,494.638L355.851,494.638L355.851,494.638z M348.389,486.262
	c-0.45,0.232-0.453,0.121-0.007-0.347c0.113-0.111,0.28-0.232,0.507-0.348l0,0C348.894,485.909,348.726,486.136,348.389,486.262
	L348.389,486.262L348.389,486.262z M358.128,493.492c0.329-0.688,0.833-0.923,1.52-0.707c1.312,0.375,1.667-0.281,1.073-1.977
	c-0.529-0.954-0.571-1.662-0.123-2.125c0.278-0.291,0.425,0.019,0.442,0.928c0.018,1.02,0.426,1.81,1.231,2.361
	c0.803,0.554,0.893,0.859,0.27,0.929c-0.679,0.011-1.187,0.191-1.52,0.537c-0.391,0.402-0.756,0.665-1.093,0.785
	C357.948,494.547,357.349,494.301,358.128,493.492L358.128,493.492L358.128,493.492z M354.051,481.696
	c-0.604-0.589-0.854-1.049-0.746-1.391c0.25-1.879,0.548-2.647,0.896-2.317c0.172,0.172,0.121,0.508-0.152,1.024
	c-0.381,0.97-0.146,1.363,0.699,1.181c0.224-0.122,0.427,0.135,0.61,0.751c0.18,0.623,0.16,1.052-0.062,1.278
	C355.073,482.454,354.658,482.279,354.051,481.696L354.051,481.696z M362.398,489.418c-1.329-1.281-1.007-2.365,0.965-3.25
	c0.668-0.469,0.673-0.242,0.01,0.684c-0.613,0.744-0.685,1.401-0.221,1.959c0.99,1.515,1.756,1.583,2.302,0.216
	c0.219-0.348,0.334-0.289,0.343,0.163c-0.204,1.366-0.849,1.803-1.935,1.313C363.173,490.056,362.687,489.698,362.398,489.418
	L362.398,489.418L362.398,489.418z M356.287,480.505c-0.337,0.237-0.424,0.096-0.262-0.421c0.218-0.458,0.551-0.913,0.996-1.376
	c0.445-0.464,0.532-0.323,0.262,0.421C356.839,479.816,356.508,480.28,356.287,480.505L356.287,480.505L356.287,480.505z
	 M355.826,478.556c-0.28,0.175-0.115-0.055,0.499-0.689c0.724-0.749,0.975-0.955,0.756-0.607
	C356.69,477.776,356.274,478.208,355.826,478.556L355.826,478.556L355.826,478.556z M364.657,487.253
	c-0.679,0.01-0.63-0.387,0.149-1.198c0.388-0.401,0.476-0.316,0.259,0.252C364.907,486.935,364.768,487.253,364.657,487.253
	L364.657,487.253L364.657,487.253z M366.19,487.393c-0.283,0.063-0.286-0.052-0.006-0.338c0.334-0.347,0.502-0.404,0.507-0.178
	C366.867,487.042,366.7,487.216,366.19,487.393L366.19,487.393L366.19,487.393z M360.813,481.529
	c-0.923-0.892-1.301-1.424-1.134-1.593c0.221-0.232,0.535-0.152,0.941,0.236c0.402,0.391,0.887,0.584,1.457,0.573
	c0.566-0.01,0.797,0.271,0.694,0.839c-0.162,0.513-0.324,0.854-0.491,1.028C362.167,482.73,361.678,482.366,360.813,481.529
	L360.813,481.529L360.813,481.529z M359.718,477.299c-0.414-0.96-0.142-1.533,0.821-1.718c0.337-0.115,0.627,0.331,0.875,1.346
	c0.188,1.075,0.172,1.729-0.052,1.96C360.696,479.576,360.145,479.046,359.718,477.299L359.718,477.299L359.718,477.299z
	 M364.66,482.572c1.171-1.212,2.226-0.86,3.167,1.055c0.352,0.786,0.241,0.901-0.335,0.341c-0.46-0.44-0.918-0.606-1.368-0.482
	C364.533,483.51,364.047,483.208,364.66,482.572L364.66,482.572L364.66,482.572z M363.476,478.082
	c1.057-1.096,1.583-1.871,1.577-2.325c0.046-0.507-0.319-0.251-1.094,0.786c-0.668,0.693-0.95,0.924-0.839,0.696
	c0.272-0.518,0.185-0.712-0.266-0.593c-0.452,0.128-0.653-0.016-0.604-0.41c-0.234-0.336-0.039-0.544,0.586-0.606
	c0.566-0.011,0.787-0.296,0.665-0.864c-0.01-0.568,0.347-1.223,1.072-1.977c0.667-0.805,1.006-0.869,1.02-0.185
	c0.067,0.732-0.008,1.216-0.231,1.45c-0.34,0.115-0.334,0.342,0.013,0.678c0.691,0.67,0.288,1.895-1.212,3.679
	c-0.836,0.864-0.862,1.064-0.074,0.596c0.617-0.29,0.982-0.558,1.09-0.786c-0.004-0.342,0.108-0.401,0.34-0.173
	c0.229,0.221,0.121,0.563-0.324,1.023c-0.445,0.46-0.779,0.917-0.996,1.375c-0.168,0.291-0.337,0.291-0.512,0.011
	c-0.234-0.336-0.52-0.496-0.86-0.49C361.814,480.324,362.028,479.695,363.476,478.082L363.476,478.082L363.476,478.082z
	 M365.39,480.431c-0.836,0.869-0.699,0.612,0.412-0.769c1.392-1.449,3.053-2.071,4.985-1.878c1.536,0.262,1.176,0.748-1.081,1.466
	c-1.184,0.422-1.744,0.824-1.679,1.223c-0.049,0.512-0.357,0.716-0.926,0.611c-0.741-0.156-1.029-0.438-0.864-0.838
	C366.285,479.852,366.002,479.909,365.39,480.431L365.39,480.431L365.39,480.431z M366.092,476.927
	c0.281-0.287,0.379-1.139,0.296-2.554c-0.058-3.289,0.262-4.485,0.96-3.589c0.288,0.28,0.851,0.099,1.692-0.543
	c0.896-0.695,1.207-0.729,0.935-0.101c-0.273,0.634-0.269,0.971,0.018,1.023c0.11-0.005,0.118,0.275,0.016,0.85
	c-1.332,1.724-0.984,2.169,1.045,1.341c0.504-0.291,0.73-0.238,0.682,0.162c0.063,0.39-0.273,0.628-1.009,0.696
	c-2.261,0.492-2.538,0.723-0.838,0.695c0.509-0.064,0.823,0.016,0.941,0.242c0.115,0.22-0.08,0.367-0.59,0.433
	c-2.153,0.152-2.374,0.38-0.668,0.695l1.79,0.22l-2.292,0.296C366.751,477.227,365.761,477.28,366.092,476.927L366.092,476.927
	L366.092,476.927z M367.661,474.095c0.039-0.965-0.057-1.556-0.289-1.779c-0.231-0.225-0.28,0.233-0.146,1.363
	C367.381,475.942,367.525,476.083,367.661,474.095L367.661,474.095L367.661,474.095z M368.585,473.48
	c0.231,0.227,0.283-0.059,0.157-0.849c-0.013-0.684-0.09-1.064-0.234-1.144c-0.143-0.08-0.239,0.185-0.282,0.813
	C368.232,472.868,368.353,473.259,368.585,473.48L368.585,473.48L368.585,473.48z M367.942,470.688
	c-0.451,0.231-0.453,0.121-0.005-0.344c0.388-0.4,0.584-0.49,0.589-0.261C368.415,470.312,368.219,470.511,367.942,470.688
	L367.942,470.688L367.942,470.688z M370.702,472.851c-1.701,0.03-1.484-0.542,0.651-1.711c0.334-0.348,0.422-0.152,0.265,0.59
	C371.345,472.362,371.039,472.731,370.702,472.851L370.702,472.851L370.702,472.851z M370.197,468.352
	c-0.504,0.406-0.115-0.055,1.168-1.381c1.224-1.267,1.644-1.649,1.255-1.13C371.842,466.764,371.034,467.598,370.197,468.352
	L370.197,468.352L370.197,468.352z M371.335,470.119c-1.019,0.132-1.073-0.421-0.157-1.659c0.913-1.234,3.571-4.19,7.971-8.861
	c2.282-2.477,4.604-4.999,6.971-7.565c2.366-2.567,4.051-4.365,5.055-5.407c2.055-2.361,2.698-2.963,1.923-1.818
	c-0.445,0.573-1.821,2.145-4.128,4.705c-2.31,2.567-4.856,5.408-7.638,8.518c-4.736,5.019-7.446,7.943-8.141,8.777
	c-0.698,0.832-0.234,0.526,1.386-0.919c2.513-2.257,6.747-6.637,12.706-13.152c2.39-2.708,4.532-5.097,6.425-7.173
	c1.89-2.077,2.975-3.256,3.257-3.544c0.612-0.632,0.746-1.12,0.399-1.455c-0.346-0.331-0.294-0.502,0.162-0.513
	c0.398,0.165,1.766-1.08,4.103-3.728c2.225-2.536,3.251-3.89,3.08-4.054c-0.229,0.006,0.245-0.596,1.413-1.808
	c1.338-1.388,2.004-2.251,1.997-2.588c0.163-0.519,0.413-0.549,0.765-0.101c0.172,0.164,0.303,0.353,0.394,0.548
	c0.088,0.197,0.16,0.323,0.218,0.376c-0.058,0.172-2.389,2.988-6.999,8.461c-4.615,5.471-9.171,10.882-13.67,16.234
	c-5.672,6.566-9.649,11.174-11.928,13.821c-2.279,2.651-3.418,4.089-3.411,4.315c-0.11,0.344-0.265,0.359-0.468,0.053
	c-0.207-0.307-0.224-0.605-0.059-0.896c-0.064-0.396,0.962-1.744,3.08-4.05l3.001-3.456l-3.428,3.373
	C373.382,468.862,371.957,470.047,371.335,470.119L371.335,470.119L371.335,470.119z M377.372,469.929
	c-0.283,0.059-0.342-0.052-0.175-0.336c0.388-0.405,0.584-0.496,0.589-0.271C377.788,469.436,377.65,469.637,377.372,469.929
	L377.372,469.929L377.372,469.929z M380.7,465.614c-0.905,0.132,2.063-3.693,8.903-11.47c0.887-1.149,2.208-2.745,3.958-4.792
	c1.749-2.045,3.402-3.928,4.965-5.656c3.107-3.8,6.109-7.199,9.01-10.198l3.846-3.808l-4.088,4.576
	c-4.563,5.191-9.039,10.369-13.427,15.555c-4.393,5.181-7.446,8.888-9.165,11.133l0,0L380.7,465.614L380.7,465.614z
	 M395.188,442.648c-0.34,0.006-0.399-0.11-0.175-0.341c0.221-0.232,0.422-0.263,0.594-0.096c0.172,0.164,0.204,0.305,0.093,0.422
	C395.586,442.752,395.417,442.758,395.188,442.648L395.188,442.648L395.188,442.648z M398.274,439.105
	c-0.462-0.45,0.207-1.254,2.002-2.42c0.672-0.353,0.537-0.037-0.409,0.944C398.864,438.664,398.331,439.157,398.274,439.105
	L398.274,439.105L398.274,439.105z M402.269,433.925c-0.112,0.115-0.141,0.115-0.083,0c0.053-0.11,0.164-0.257,0.329-0.428
	c0.169-0.17,0.306-0.29,0.419-0.348s0.143-0.058,0.086-0.005C402.798,433.494,402.547,433.755,402.269,433.925L402.269,433.925
	L402.269,433.925z M409.906,427.922c-0.172-0.165,0.047-0.567,0.658-1.202c0.502-0.521,0.782-0.698,0.845-0.526
	c0.058,0.17-0.136,0.543-0.577,1.122C410.389,427.888,410.078,428.093,409.906,427.922L409.906,427.922L409.906,427.922z
	 M411.547,424.49c0.051-0.397,0.164-0.4,0.344-0.006c0.174,0.396,0.179,0.679,0.013,0.849
	C411.514,425.744,411.393,425.454,411.547,424.49L411.547,424.49L411.547,424.49z M412.824,424.385
	c-0.176-0.168-0.123-0.396,0.156-0.685c0.277-0.29,0.301-0.548,0.071-0.769c-0.288-0.28-0.149-0.365,0.423-0.263
	c0.395,0.05,0.305-0.205-0.271-0.763c-1.729-1.442-2.541-2.622-2.442-3.532c-0.188-0.957-0.372-1.748-0.551-2.372
	c-0.302-0.843,1.081,0.269,4.141,3.331c3.463,3.347,5.509,5.209,6.136,5.595c0.922,0.78,1.355,1.199,1.3,1.252
	c-0.339,0.005-1.286-0.573-2.837-1.739c-0.691-0.557-1.196-0.924-1.51-1.123c-0.317-0.192-0.387-0.205-0.213-0.04
	c0.352,0.563,0.387,0.989,0.107,1.276c-0.281,0.288-0.275,0.572,0.016,0.848c0.402,0.39,0.152,0.648-0.752,0.781
	c-0.685-0.1-1.055-0.291-1.117-0.577c-0.233-0.449-0.177-0.504,0.169-0.172c0.347,0.336,0.558,0.347,0.64,0.033
	c0.076-0.314-0.057-0.638-0.403-0.974c-1.499-1.448-2.378-1.517-2.642-0.21C413.137,424.52,412.996,424.553,412.824,424.385
	L412.824,424.385L412.824,424.385z M411.897,420.145c0.402,0.391,0.658,0.413,0.767,0.072c0.052-0.287-0.066-0.565-0.355-0.845
	c-0.289-0.277-0.516-0.33-0.682-0.158C411.404,419.449,411.494,419.76,411.897,420.145L411.897,420.145L411.897,420.145z
	 M415.252,422.216c0.46,0.447,0.801,0.554,1.026,0.323c0.168-0.172,0.077-0.428-0.269-0.759c-0.347-0.337-0.689-0.499-1.028-0.494
	C414.643,421.405,414.732,421.715,415.252,422.216L415.252,422.216L415.252,422.216z M418.31,421.994
	c-2.015-1.722-3.145-3.093-3.388-4.113c-0.363-1.127-0.234-1.896,0.383-2.305c1.854-1.224,1.817-1.534-0.1-0.934
	c-2.039,0.261-2.473-0.211-1.302-1.424c0.278-0.288,0.329-0.634,0.151-1.023c-0.233-0.45-0.182-0.735,0.158-0.854
	c0.34,0.105,0.421-0.093,0.244-0.596c-0.236-0.451,0.25-1.127,1.453-2.028c1.206-0.899,2.174-1.272,2.914-1.114
	c0.229,0.11,0.541-0.035,0.929-0.441c0.275-0.284,0.872-0.493,1.779-0.625c0.843-0.07,1.551-0.397,2.106-0.975
	c0.502-0.518,1.009-0.699,1.524-0.537c1.54,0.71,1.876,1.867,0.995,3.471c-0.717,1.208-0.984,2.231-0.8,3.077
	c0.185,0.849,0.67,0.872,1.448,0.061c0.946-0.979,2.434-1.86,4.464-2.63c2.023-0.772,3.27-0.935,3.731-0.491
	c0.581,0.561-0.188,1.935-2.307,4.126c-0.672,0.692-0.72,1.035-0.155,1.021c0.343,0.105,0.268,0.703-0.223,1.792
	c-0.549,1.14-0.794,1.798-0.73,1.971c0.173,0.166-0.127,0.993-0.896,2.482c-0.662,1.028-1.268,2.119-1.814,3.267
	c-0.496,0.745-0.832,1.034-1.006,0.869c-0.231-0.226-0.283,0.115-0.151,1.021c0.063,0.733-0.13,1.05-0.583,0.943
	c-0.459-0.216-0.713-0.186-0.766,0.1c-0.163,0.626-1.326,0.39-3.498-0.706C421.446,424.577,419.923,423.44,418.31,421.994
	L418.31,421.994L418.31,421.994z M416.711,413.086c0.795,0.098,1.499-0.17,2.111-0.805c1.894-1.96,1.661-2.242-0.694-0.838
	c-0.618,0.407-0.956,0.474-1.017,0.188c-0.244-0.902-0.895-0.806-1.953,0.288C414.488,412.615,415.004,413.003,416.711,413.086
	L416.711,413.086L416.711,413.086z M428.705,422.83c0.893-0.922,0.932-1.775,0.127-2.553c-0.232-0.221-0.158-0.594,0.236-1.112
	c0.329-0.572,0.406-0.939,0.236-1.11c-0.807-0.779-1.416,0.08-1.828,2.585C427.068,423.369,427.48,424.1,428.705,422.83
	L428.705,422.83L428.705,422.83z"/>
</svg>
