<svg xmlns="http://www.w3.org/2000/svg" viewBox="0 0 286.5 147.7">
  <g fill="#FFF">
    <path d="M2.8 0H16v2.7H6v8.2h9.3v2.6H6v11.2H2.8V0zM35.3.3c1.7-.3 4-.5 6.2-.5 3.4 0 5.6.6 7.1 2 1.3 1.1 2 2.8 2 4.7 0 3.3-2 5.4-4.7 6.3v.1c2 .7 3 2.5 3.6 5 .8 3.5 1.4 5.9 2 6.8H48a32 32 0 0 1-1.6-5.9c-.7-3.4-2-4.7-5-4.8h-3v10.7h-3.2V.3zm3.2 11.3h3.3c3.4 0 5.6-1.9 5.6-4.7 0-3.2-2.3-4.6-5.7-4.7-1.6 0-2.7.2-3.2.3v9zM73 0v24.7h-3.2V0h3.1zM91.5 22.8l13.7-20v-.1H92.7V0h16.7v2L95.7 22h13.9v2.7h-18v-1.9zM126.5 22.8l13.7-20v-.1h-12.5V0h16.6v2l-13.6 20h13.8v2.7h-18v-1.9zM167.1 17l-2.5 7.7h-3.3L169.7 0h3.8l8.5 24.7h-3.5L176 17h-8.8zm8.1-2.6l-2.4-7-1.3-4.6a75 75 0 0 1-1.3 4.5l-2.4 7.1h7.4zM200.3 24.7V0h3.5l7.9 12.5c1.8 2.9 3.2 5.5 4.4 8-.2-3.3-.3-6.3-.3-10.2V0h3v24.7h-3.2l-7.8-12.5a78.3 78.3 0 0 1-4.7-8.3l.2 10.2v10.6h-3zM243.8 2.7h-7.5V0h18.3v2.7H247v22h-3.2v-22zM284.8 13.1h-9.6v9h10.7v2.6H272V0h13.4v2.7h-10.2v7.8h9.6V13z"/>
  </g>
  <g fill="#FFF">
    <path d="M87.5 58v-4.4h-3.7V58h-3V46.8h3V51h3.7v-4.2h2.9V58h-3zM107 58l-.5-1.5h-4L102 58h-3.1l4.5-11.3h2.3l4.5 11.3H107zm-2.4-7.7l-1.2 3.9h2.3l-1.1-3.9z"/>
  </g>
  <g fill="#FFF">
    <path d="M123.4 58.3c-3.3 0-6-2.6-6-5.9s2.7-5.8 6-5.8A5.8 5.8 0 0 1 129 51h-3a3 3 0 0 0-2.7-2c-1.9 0-3 1.6-3 3.3s1.1 3.4 3 3.4c1.2 0 2.2-.8 2.7-2h3c-.6 2.7-3 4.5-5.7 4.5zM144.3 58l-3.1-4.8v4.9h-3V46.8h3v5l3.2-5h3l-3.8 5.6 4 5.7h-3.3zM163.1 58l-4.3-6.8v6.9h-2.7V46.8h2.5l4.3 7v-7h2.7V58h-2.5zM175 58V46.9h6.3v2.5h-3.5v1.8h3.4v2.5h-3.4v2h3.5V58H175zM195.8 54v4h-2.9v-4l-3.4-7.2h3.2l1.6 4.5 1.7-4.5h3.1l-3.3 7.2z"/>
  </g>
  <g fill="#FFF">
    <path d="M161.8 146.8v-1c0-.6 0-1 .3-1.2.2-.3.3-.5.2-.7v-.9c.4-.9.4-1.7 0-2.5a9.8 9.8 0 0 0-4.6-3.8c-1.2-.6-2-1.1-2.2-1.6-.1-.3-.3-.5-.5-.5s-.3-.2-.3-.3l-.2-.4-.7-1.2a8.4 8.4 0 0 0-2.2-2.7l-1.4-.7c-.6 0-2-1.2-4-3.2a143.8 143.8 0 0 1-15-16.9c-.5-.5-.7-1.1-.6-2l.3-1.1a3 3 0 0 0 .2-2.1c-.2-.6-1.2-1.7-2.9-3.5a286 286 0 0 0-13.5-12.4c-.5-.5-.8-.6-.9-.4 0 .2 1.7 2.1 5.2 5.9a393.5 393.5 0 0 1 6.1 6.7c.6.7.9 1.2.7 1.3l-.3.3-3.4-3.6a646.1 646.1 0 0 0-9.6-9.3l2.8 3.4 6.6 7.5 2.6 3-.2.2c-.2.1-.3.2-.4.1l-1.5-1.5-3.6-3.7a508.8 508.8 0 0 0-8-7.7l1.7 2a258.6 258.6 0 0 1 5.6 6.6l2.3 2.6a60 60 0 0 1 2.2 2.7c.2.3.2.5 0 .6l-1.2-1-5-5.4-4.3-4.6-2-2.2-.5-.1a1477.2 1477.2 0 0 1 13.6 18c.4.5.9.8 1.2 1 .5.2 1 .2 1.5 0 .9-.2 1.6-.2 2 .1.6.3 1.5 1.3 3 2.9a378.7 378.7 0 0 1 10.3 12.7 43.5 43.5 0 0 1 5.5 9c.1.3.7.8 1.7 1.7l1.8 1.4c.7.4 1.1 1 1.4 1.7.2.3.4.8.5 1.5.1.7.4 1.5.7 2.2a9.8 9.8 0 0 0 3.3 3.8c.7.2 1.3.3 1.8 0h3c.4 0 .7-.2 1-.7zm-.8.2c-.4 0-.8-.1-1-.4 0-.1-.1-.1-.2 0-.2.4-.3.3-.3-.2 0-.2 0-.1-.1 0-.2.2-.2.2-.2-.2v-.5c-.1 0-.2 0-.2.3 0 .2-.1.2-.2 0l-.5-.7c-.2-.2-.3-.4-.2-.5.2-.1.1-.3 0-.4l-.3-.3v.6l.3.9c.2.3.3.5.2.7-.4.7-.5.7-.3.1l-.3-.4c-.2-.2-.2-.4-.2-.5h-.1c-.1.3-.2.3-.3 0l-.2-.1c-.1 0-.1.2 0 .2 0 .3-.3.5-1.2.5-.7 0-1-.2-1-.6.3-.8.2-1-.3-.4l-.4-.2c-.1-.2-.2-.3-.1-.4v-.2c-.2 0-.4-.3-.7-1l-.3-1c.3.2.5.7.7 1.5.2.6.6 1 1.5 1.4.2 0 .4 0 .4-.2l.3-.2c.4.1.4 0 0-.5-.4-.4-.6-.4-.5 0 .1.4-.1.5-.7.2-.3-.2-.6-.7-1-1.4l-.4-1.1.3.6c.2.5.4.7.5.7l-.6-1.7a5 5 0 0 1-.4-1.5l.4 1c.4 1.5.8 2.4 1.3 2.7l.1.3h-.3c-.1-.1-.1-.1 0 0 .4.5.7.4.7-.1l.3-.1c.2 0 .3 0 .1-.1-.1-.1-.1-.2.1-.2s.3 0 0-.3l-.3-.6c.3-.6 0-1-.6-1l-.2.2c0 .5-.2.3-.3-.4-.1-.2 0-.3 0-.2.1.1.2.1.2 0 0 0 0-.3-.4-.7l-.4-.6c.1 0 0-.2 0-.4-.2-.2-.2-.3 0-.3l-.1-.3-.4-.4a25.8 25.8 0 0 0-4.8-4.6c-.7-.8-.5-1 .5-.6.7.2 1 0 .8-.7v-.6l.2-.6c.2-.5.5-.3 1.1.4.5.5.7.6.6.2 0-.2 0-.3.1-.2.1.1.2.1.2 0v-.4c-.2-.2-.1-.3 0-.3s.1 0 0-.2c-.2-.1-.2-.2-.1-.2l.4.4v.9l-.3.5-.2.3c0 .2 0 .3-.2.2-.5-.3-.5-.1 0 .3.4.4.4.6.2.8-.1.2-.3 0-.6-.3l-.5-.8c0-.2-.1-.2-.3-.1l-.2-.1c0-.2 0-.1-.1 0l.1.5.5.8a27 27 0 0 0 3.2 3.8 14 14 0 0 0 3 2.8s.2 0 .3.3c.1.2.3.2.4 0 .2 0 .2-.1 0-.2a34.5 34.5 0 0 1-4-3.9c-.4-.6-.6-1-.5-1.1l.3.1c.7.6 1.1 1 1.3.9.4 0 .6 0 .7.2l1 .4 2.2 1.3c.8.5 1 .8 1 1-.5.4-.3.7.4.8.2.1.2 0 .2 0l.1-.3c.1 0 .2-.1.2-.3 0-.2 0-.3.3-.4.4 0 .6.3.5 1.1 0 1-.2 1.5-.6 1.3v.2c0 .6.3 1 .9 1 .3 0 .2 0-.3.2h-.5c-.3-.3-.3-.3 0 .1 0 .3 0 .2-.3 0-.2-.4-.4-.5-.5-.5l.2.5.5.5c.2.1.2.2.2.3l-.5-.1c-.2 0-.4-.2-.4-.5-.2-.1-.2-.1-.2 0 0 .6.4.8 1 .9h.4c.4-.4.4-.6 0-.7h.3l.4.1c0 .4-.3.6-.8.8-.3 0-.3.1 0 .1s.3.2-.2.5c-.2.2-.3.3-.2.4 0 .1 0 .1.2 0 .3-.3.4-.2.5.2 0 .6 0 .9-.3 1zm0-.4v-.3h-.2c-.2.2-.3.1-.6-.1l-.3-.2c-.1.2 0 .4.5.6h.5zm-1.2-1.8v-.1c.3.8.2.8-.4.2-.2-.2-.2-.4-.2-.6 0-.1 0-.2-.1 0-.2.1-.1.3 0 .5l.5.4c.4 0 .5-.1.2-.4zm-.9-1c0-.2-.2-.2-.5-.3s-.4 0-.3.2c0 .1 0 .2.3 0 .1 0 .3 0 .5.2 0 0 .1 0 0-.1zm.1-.4l-.1-.4-.1.2.1.3c.1.1.1 0 .1 0zm-2.4 1.4c0-.4-.1-.4-.4.1-.1.3-.3.5-.7.5-.7.2-.7.3 0 .4.7.2 1.1-.1 1.1-1zm4.4-4.3v-.5c-.1-.1-.2 0-.3.3-.2 1-.5 1.2-1.1.8-.2 0-.3 0-.2.1 0 .2.2.3.4.4.7.2 1-.2 1.2-1zm-3.2 1c-.2-.2-.3-.2-.3 0 0 .3 0 .4.2.5.8.4.8.2.2-.5zm-.9 5.2c-.5.2-.9.1-1.2 0-.5-.3-.5-.4.2-.2.4.1.8 0 1-.2.2-.2.3-.3.4-.2.3.3.1.5-.4.6zm4.6-4.3c-.2.2-.3.2-.4 0l.2-.4.3-.9c0-.4 0-.6.2-.4v.9c0 .4-.2.6-.3.8zm-1.6-2.6c0 .2-.1.3-.2.2l-.1-.4c0-.1-.1-.4-.6-.8l-1.7-1a9 9 0 0 1-1-.6l1.4.7c1 .5 1.5.9 1.7 1.1.4.4.6.6.5.8zm.6-.5h-.3l-.9-.7-1-.7c-.3-.1-.4-.2-.3-.3h.4a93.4 93.4 0 0 0 2.1 1.7zm-7.7 1.8c-.2-.3-.2-.8-.3-1.3s0-.7.1-.6c.3.4.3.7.2.7-.1.1 0 .4.1 1 .3 1.1.3 1.2-.1.2zm2.8-4c-.2 0-.2 0-.2-.2s.2 0 .3 0c.4.1.4.2-.1.2zm.5-.6h-.2v-.2c0-.1 0-.1.1 0 0 .1.1.2 0 .2zm-.7 0h-.6c-.4-.5-.3-.5.4-.2l.2.2zm-.1-.5c0 .1 0 .1-.2 0 0-.2-.1-.2 0-.2l.2.2zm-3.2 2.7l-.4-.2c-.5-.6-1.2-1-2.1-1.4a1 1 0 0 1-.6-.3l.3-.2h.6c.1-.2.3-.2.6 0s.4.3.2.4c-.3 0-.4.1-.4.2-.1.1 0 .1.4 0h.6l.4.3c.2.1.2.2 0 .3-.2.1-.3.2-.1.3h.6l.1.3-.2.3zm2.4-2.2c0 .2 0 .2-.2 0a1 1 0 0 1-.2-.4c0-.2 0-.2.1 0 .2 0 .2.2.3.4zm-3.2 2l.2.2c.2.2 0 .2-.2-.2-.3-.3-.4-.4-.2-.3l.2.3zm2.2-2.6c-.1 0-.1 0 0-.1v-.1c-.2 0-.3-.3-.3-.7l.1-.5.3.7c.3.7.2 1-.1.7zm1-.7c0 .2-.2 0-.5-.2s-.3-.7-.4-1c0-.2 0-.3.2-.3l.2.6.3.5c.1.2.2.3.1.4zm-1.6-.3c-.3.2-.4 0-.4-.5l.2-1 .3-.7c.3 0 .4.4.2 1l-.2.8-.1.4zm-3.2 1.3c-.4.6-.9.6-1.4.1 0-.1 0-.2.3-.2.4 0 .6 0 .8-.3 0-.2.2-.2.3 0 .1.2.1.3 0 .4zm2.4-2.6c-.3 0-.3-.2 0-.5l.3-.6c0-.3 0-.5.2-.5v.5c-.1.8-.3 1.1-.5 1zm-3 2c-.3.5-.8.5-1.6 0-.4-.4-.3-.5.2-.3.7.3 1 .3.9-.1h-.3c-.7.4-1 .2-1-.4l.4.1c.2.2.4.2.5.1l-.5-.6-.2-.7.5.6c.3.4.7.6 1 .7l.4.1c0 .2 0 .3-.2.4zm2.3-4c-.2-.2-.2-.4-.2-.5l.2.1c.5.7.5.8 0 .3zm-2.2 1.5s-.2 0-.4-.3c-.2-.2-.4-.2-.5-.1v-.2c0-.3-.1-.5-.3-.7-.1-.1-.1 0 0 .2v.4l-.2-.4c-.2-.2-.2-.4-.2-.5 0-.1 0-.1 0 0s.1.2.2 0c.1 0 .1-.2 0-.4l.3.2c.2.2.5.3.8.3.8 0 .9.2.2.4-.4 0-.5.3-.2.6s.4.4.3.5zm0-.6h-.1c-.1 0-.1-.1 0-.2h.1c.1 0 .1.1 0 .2zm-1.6.3c0 .3-.2.3-.3 0l-.5-.1h-.3c0-.1 0-.2.4-.3h.7v.4zm1.9-1.7h-.4c-.4-.1-.4-.4 0-1 .1-.2.3-.3.5-.3s.2 0 0 .2c-.6.3-.7.6-.3 1l.2.1zm.7-.7H150c0 .2-.1.2-.3.2v-.2c.2-.2.4-.2.5-.2l.1.2zm-1.7.5v.4c-.3-.3-.2-.7.2-1.4 0-.2.2-.2.2-.1l-.1.4c-.2.2-.3.4-.3.7zM147 132h-.5.3c.7-.2.7-.3 0-.3-.5 0-.6 0-.4-.3h.6c.8.4.8.6 0 .6zm1.2-1l-.2-.4v-.8c.1-.4.3-.5.4-.3v.3c-.2.1-.3.3-.2.6v.5zm-.8.1h-.6c-1 0-1.2 0-.6-.1.3 0 .3 0 .2-.2l-.5-.1c-.2 0-.3 0-.4.2 0 .1 0 .2 0 0v-.3c.3-.4.7-.4 1.4 0l.5.5zm1.7-1.7l-.4-.1-.3-.4c0-.2 0-.2.1 0 0 .1.2.3.4.3l.2.2zm-1.4.8c.2.3 0 .2-.2-.2-.3-.3-.4-.5-.4-.8 0-.6.2-.9.7-.7.4.2.4.3 0 .3-.5 0-.6.3-.4.7 0 0 0 .1.1 0v-.2l.2-.2c.3 0 .3.2.1.5v.6zm-1.8 1.5h-.2s-.1-.1 0-.2h.1c.2 0 .2.1 0 .2zm.8-1.7c.2.3.2.4 0 .3l-.8-.2h-.5l.5-.1h.5l-.3-.2c-.2-.1-.3-.2-.2-.3l-.4-.2c-.2-.1-.5-.2-.6-.4l-1.4-1.7a160 160 0 0 0-9-11 80.5 80.5 0 0 0-4.3-5c.1-.6 0-.8-.5-.5-.2 0-.2 0-.1-.4l.2-.4c0 .2 0 .2.3 0 .3 0 .4 0 .2.2-.1.1-.1.3 0 .4l.5.3c.1 0 .4.2.6.6a262.2 262.2 0 0 0 14.4 15.7l.4.2.7.7h-.3l-.5-.2v1.2l.2.4.4.6zm-1.1-1.3v-.6c-.2-.2-.2-.4-.1-.5 0 0 0-.2-.2-.3l-1.8-1.5-2.6-2.8a355.3 355.3 0 0 0 4.4 5.1l.1.5c0 .1-.2 0-.3-.3-.2-.3-.3-.4-.4-.3-.2.2 0 .5.5.8.2.1.3 0 .4-.1zm1.2.6c0 .4 0 .5-.1.3v-.7c0-.2.1-.4.3-.4.1 0 .2 0 0 .2l-.2.6zm-1.2.4l-.4-.1c0-.1 0-.2.3-.1.3 0 .4 0 0 .2zm1.6-1.8c.1.2.1.2 0 0l-.4-.2c-.2-.1-.2-.1 0-.1.1 0 .3 0 .4.3zm-.8 1c-.1.1-.2 0-.2-.1 0-.7.1-1 .5-.6l-.1.2c-.2 0-.2.1-.2.3v.2zm-1.5 1l-.6-.6c-1-1.3-1-1.5 0-.4.3.5.6.8.6 1zm-1.5-2c.1.2 0 .1-.3-.2l-.2-.3c.3.1.4.3.5.5zm.7-2.8l.9 1-.7-.6a87.4 87.4 0 0 1-8.9-9.5l-.7-.9.5.5c.3.2.2 0-.3-.6l-1-1a8419.7 8419.7 0 0 0 9.2 9.9l1 1.2zm-2.3-2.5zm-4-4.3l-.2-.1c-.2 0-.2 0 0 .1s.2.2.2 0zm-1.3-1.3c0-.2-.2-.3-.3-.4-.2-.1-.2 0 0 .2l.3.2zm5.9 9.6s.1.1 0 0l-.3-.2a3 3 0 0 1-.3-.4l.6.6zm-1-1.3c.2.2 0 .2-.3-.3-.4-.4-.5-.5-.2-.3l.5.6zm-1-1.3c0 .1 0 .1 0 0 0 0-.2 0-.3-.3a3 3 0 0 1-.3-.3l.6.6zm-1.4-1.7l.2.2c.1.2 0 .2-.3-.2a51.7 51.7 0 0 0 0 0h.1zm-.9-1.1l-.2-.2c-.2-.2-.3-.3-.1-.2l.3.4zm-1.8-2.2c0 .1 0 .1-.2 0 0-.2-.1-.2 0-.2l.2.2zm-3.3-3.9l-.2-.1-.2-.3c.2 0 .3.2.4.4zm.7-1.2c0 .1 0 .1-.2 0l-.4-.6-.6-.8a10 10 0 0 1-1-1.3c0-.2 0-.2.1 0l1.1 1.3 1 1.4zm-.5-1h-.1c-.2-.2-.2-.3-.1-.3l.2.2zm-1.6.4c.1.2 0 .2-.3-.1-.3-.4-.3-.5-.1-.3l.4.4zm.6-1.7c-.2-.2-.3-.2-.1-.2l.1.2zm-1.7.5h-.2c-.1-.1-.1-.2 0-.2l.2.2zm-.5-.5s-.2-.1-.3-.4c-.1-.2 0-.2.2 0 .3.4.4.5 0 .4zm.8-1.4h-.2c-.2 0-.2 0 0-.2 0 0 .2-.1.2 0v.2zm.1-.6l-.2-.1c-.1-.2-.1-.3 0-.2l.2.3zm-4-.8c0 .2 0 .3-.1.2l-.4-.4c-.2 0-.2 0 0-.1l.4.3zm-.7.8h-.1l-.2.1c-.1-.2-.2-.2-.4-.3h-.1.2c.3 0 .5 0 .6.2zm2-1.9h-.2v-.3l.2.1v.2zm1.4-1.4l-.2.1v-.2c0-.1 0-.1.2 0v.1zm-2.4.7a7 7 0 0 1-1.5 1.2l-1.1.8-.7.6-.7-.9a57.4 57.4 0 0 1-3.2-4.6c0-.2.1-.2.4-.2.3 0 .7.3 1.2.8l.8.7.5-.5c.3-.3.5-.5.4-.6-.5-.7-.7-1-.6-1.1.1 0 .3 0 .4.2l.4.2h.3c.2.2.4 0 .8-.3l.5-.6-.4-.5c-.4-.3-.5-.6-.3-.6 0 0 .4.1.8.5.2.2.5 0 .9-.3l.5-.5-.6-.9-.6-.6.2-.1c0-.1 0-.2.2-.1l.3-.1c.2-.3 1 .4 2.5 2l1.7 1.9-.5.5-.6.7-.3.5-.4.6c0 .2 0 .2-.2.1h-.2c.1.2-.2.6-1 1.2z"/>
</g>
<g fill="#FFF">
  <path d="M115.5 145.6c.5.5 1 .5 1.3.1l.8.2h1a3 3 0 0 1 1.2-.1c.9 0 1.8-.5 2.8-1.6 1.1-1.1 2-2.8 2.7-5a4 4 0 0 1 1.7-2.4c.5-.4.9-.7 1-1 .3-.4.7-.7 1.2-.9.5-.3.8-.5 1-.8l.6-.9c.3-.3.4-.7.6-1.2 0-.5.2-.9.3-1l.4-.7c.6-1.6 4.7-6.8 12.5-15.9 2.4-2.8 3.9-4.4 4.6-4.9s1.6-.6 2.9-.5c1.8.1 3.6-.3 5.3-1.2a27.2 27.2 0 0 0 5.6-6c1.5-2.3 2.4-4.3 2.6-6.1.2-1.8.2-3.2-.1-4-.2-.5-.6-1-1.1-1.4l-1-.8c-1-.6-2.6-.6-4.7.2a23.6 23.6 0 0 0-11 8.6c-1.3 2-1.6 3.7-1 5.4.5 1.3.4 2.4-.1 3.3l-.3.7c0 .3 0 .5-.2.6l-1.8 2.3a175.3 175.3 0 0 1-15.8 16c-.3.2-1 .5-2.1.8-1.1.4-1.6.8-1.5 1.3 0 0 0 .2-.3.4-.3 0-.5.4-.6.8-.1.4-.3.7-.6.9-.3.2-.8.9-1.4 2-.3.5-.7.8-1.5 1-5.3 2.1-7.3 5.1-6 9.1a7.5 7.5 0 0 0 .5 1.6c0 .4.2.7.5 1zm.6-.8c-.5-.5-.7-1-.5-1.3.1-.8.2-.7.3.1 0 .5.3.8.7 1 .3.2.3.3 0 .3h-.5zm-1-2.8c0-.2 0-.1.2 0 .2.3.2.4.1.4-.3.1-.4 0-.4-.4zm1.5 1.5c-.1-.1 0-.2 0-.4l.3-.1v.3l-.3.2zm-.5-1l-.3-.1.5-.1c.4 0 .5 0 .4.1l-.6.1zm.3-.8c-.2 0-.3 0 0-.2l.5-.4.4-.5c.1-.3.1-.2.1 0 0 .3-.1.5-.3.7l-.7.4zm-1.5-1.7c0-.3.1-.3.2 0 0 .3.2.5.5.5s.5-.1.7-.3c.1-.3.2-.3.3-.1 0 .4-.3.6-.8.6-.6 0-.9-.2-.9-.7zm1.3 1.3c-.2 0-.2 0 0-.2.7-.3.8-.4.5 0a1 1 0 0 1-.5.2zm2.5 2c.2-.3.3-.5.6-.6.2-.1.1 0-.2.4-.5.7-.6.8-.4.2zm-.4-.1c-.2 0-.2 0 0-.1l.2-.1-.2.2zm1.3 1.4c-.4-.3-.3-.7.1-1.2.3-.2.3-.5.2-.8-.2-.3-.4-.4-.7-.2h-.3c.2-.9.5-1.2 1-1 .4.4.5-.2.2-1.5-.1-.4-.2-.6 0-.7.5-.6.3-.6-.6 0-.7.2-.8.6-.4 1 .3.2.4.4.4.7-.1.2-.3.2-.5-.2-.2-.3-.4-.4-.6-.2-.1.3-.2.3-.3 0-.2-.5-.3-.6-.3-.3 0 .1-.2.2-.3 0h-.5l-.1-.1c0-.2 0-.4-.2-.5v-.3-.4c-.1-.1-.2 0-.3.1-.1.2-.3 0-.5-.5-.2-.3-.2-.6 0-.7 0-.1.2 0 .2.2.1.7.6 1 1.3 1.1s1-.2.8-.8c0-.2 0-.2-.3 0-.2.3-.3.3-.4.2l-.4-.2c-.2 0-.3-.3-.3-.7 0-.5 0-.6.2-.6.1 0 .2 0 .2-.3s0-.4.2-.4v.2c-.2.8-.3 1.3 0 1.5.5.5.7.4.7-.4 0-.4.7-1 2-1.7 1.9-1 2.4-1.3 1.5-1.1-.1 0-.2 0-.1-.1l.3-.1.9-.5.5-.3.4-.3c.1 0 .2-.2.1-.4 0-.2-.1-.4 0-.8 0-.4.1-.5.3-.6v.6.3c0-.1.1-.2.3-.2.1 0 .2 0 .1-.4s-.2-.5-.3-.5v-.3c0-.3.2-.5.4-.6l.1-.3v-.3c0-.2.3-.1.5.1.5.4.9.4 1.3-.1l.6-.9.3-.2c.2 0 .3 0 .4.4l.2.6c.2.2.2.3.1.5 0 .2.1.3.3.3.8 0 1 .2 1 .6 0 0 0 .1-.2 0l-.7.3c-.4.2-1.3 1-2.7 2.7a16.1 16.1 0 0 0-2.4 2.9l-1.8 2.8c-.8 1-1.2 2-1.2 2.7 0 .4 0 .7-.3.9-.2.2-.3.4-.3.7 0 .3 0 .4-.1.3zm-1-6l-.3.5c-.3.3-.4.4-.5.3-.1 0 0-.2.3-.5s.5-.4.5-.3zm.3-1.2c0-.1.2-.4.7-.6l.6-.4-.4.5c-1 .8-1.1 1.2-.6 1 .2 0 .4-.1.6-.4l1.4-1a18.6 18.6 0 0 0 2.6-2.6l-1.1 1c-.7.7-1.2 1.1-1.7 1.3-1 .5-1.2.5-.3 0l.2-.3-1 .5c-1 .5-1.6 1-1.4 1.2.2.4.3.3.4-.2zm2.4-1.6s.2-.1.1-.2c0-.1 0-.1-.1 0-.2.2-.2.3 0 .2zm.5-.4l.3-.3-.2.2c-.2 0-.2.1-.1.1zm1-.8c.1 0 .2-.1 0-.2l-.3.1c-.3.3-.2.3.3.1zm1.8-.1l1.5-1.7 1-1.5-.2.2-1.6 1.8c-.9 1.1-1.1 1.5-.7 1.2zm.6-2l.6-1.2c.1-.3.1-.4-.2 0-.1.3-.3.4-.3.3-.1 0-.4.3-.7.8l-.6 1.2c-.2.7.2.4 1.2-1.1zm-.4-.9c0-.3.1-.5.3-.4.8-.1.9-.3.4-.6-.7-.3-1 0-1 .8 0 .7.1.7.3.2zm1.4-.5l.3-.5c.2-1 .2-1-.2 0-.2.3-.2.5 0 .5zm-8.2 11c-.1.1-.2.1-.2 0s0-.2.2-.3c.1-.2.2-.1.2 0 0 .2 0 .3-.2.4zm-.3-.6h-.3c.1-.2.4-.3.7-.3l.4.1h-.3s-.3 0-.5.2zm-2.3-2c-.2-.2-.2-.4-.1-.6l.3.1c0 .3.2.4.3.5v.1c-.2.1-.3 0-.5-.1zm5.2 4.7c-.1 0-.1-.2 0-.2l.1-.1v.2c0 .1 0 .2-.1.1zm.2-1c-.1 0-.1 0 0-.2.3-.3.4-.3.3-.1l-.3.3zm.5.4c-.2-.1-.2-.2 0-.3l.3.1c.1.2.2.3 0 .3l-.3-.1zm-5-5.9c0-.2 0-.2 0 0l.1.4c-.1.1-.2 0 0-.4zm5.4 4.6c-.4-.3-.4-.7 0-1 0-.2 0-.2.1 0 .1 0 .1 0 0 .1v.6l-.1.3zm.7.5c-.1 0-.2-.1 0-.2 0 0 0-.1.2 0h.1c0 .2-.2.2-.3.2zm-4.6-5.3l-.2-.3c0-.4.5-.8 1.6-1.3 1.2-.6 1-.5-.3.4-.6.4-1 .7-1 1 .1.3 0 .3 0 .2zm4.6 4.3c-.2-.1-.2-.2 0-.4l.2.1c.5.4 1-.7 1.8-3.5.3-1.2.6-1.7.9-1.5v.3c-.2 0-.5.6-.8 1.7a12 12 0 0 1-1.6 3.4l-.5-.1zm.9.5c-.1 0-.1-.1 0-.2h.1c.1.1.2.2 0 .2 0 .1 0 .1-.1 0zm-.7-1l.2-.3a20.3 20.3 0 0 0 .9-1.5l-.3.8-.5 1h-.3zm-4.5-5.4l.5-.3c.2 0 .2 0-.1.2-.6.4-.7.4-.4 0zm2.2-.5h-.1c.1-.2.3-.2.4-.3h.2c-.1.2-.3.3-.5.3zm1.1-1l-.5.2.5-.4c.5-.3.7-.4.6-.2-.1.2-.3.3-.6.4zm3.8 3c0-.3 0-.3 0 0V137.2zm-2.9-3.4l.1-.7c.4-.9.7-1.3 1-1.2l-.1.2c-.2 0-.3 0-.1.1.2 0 .1.1-.1.3-.4.2-.4.3-.2.3.1 0 .2 0 0 0l-.2.4c0 .2-.1.4-.4.6zm3.4 3c-.1 0-.1 0 0-.2.1-.1.2-.1.2 0l-.2.1zm-2.7-3.4l.1-.4c.2-.1.2-.1.2 0 0 .3-.1.4-.2.4 0 .1 0 .1-.1 0zm2.8 2.4c-.3 0-.3-.1-.1-.3.2-.3.3-.4.3-.2 0 .1.1.2.3.1.3 0 .3 0 .1.2-.1.2-.3.2-.6.2zm.6.5c-.3.2-.3.1.2-.3l.6-.5-.1.4-.7.4zm0-1.6l.5-.3c.2 0 .2 0 0 .2l.4.1c.2 0 .3.1.2.2-.1.2-.4.2-.7.2-.5 0-.7-.1-.4-.4zm-3-3.2c-.1 0-.1 0 0-.2l.3-.1-.2.3zm3.9 2.8c0-.3.3-.4.5-.3.6.1.7-.1.5-.8-.2-.3-.3-.6 0-.8v.4c0 .4.2.7.6.9.3.2.3.3 0 .3-.2 0-.4.1-.5.3l-.4.3c-.8 0-1 0-.7-.3zm-1.6-4.6c-.3-.2-.4-.4-.3-.6 0-.7.2-1 .3-.9v.4c-.2.4 0 .6.2.5.1 0 .2 0 .3.3v.5c-.1 0-.3 0-.5-.2zm3.2 3c-.5-.5-.4-1 .4-1.3.2-.2.2 0 0 .3s-.3.5-.1.8c.4.5.7.6.9 0l.1.1c0 .5-.3.7-.7.5a4 4 0 0 1-.6-.4zm-2.4-3.5c0 .1-.1 0 0-.1l.3-.6c.2-.2.2-.1.1.2a4 4 0 0 1-.4.5zm-.1-.7c-.2 0 0 0 .2-.3l.2-.2-.4.5zm3.4 3.3c-.3 0-.3-.1 0-.4.2-.2.2-.1.1 0l-.1.4zm.6.1c-.1 0-.1 0 0-.1.1-.2.2-.2.2-.1l-.2.2zm-2.1-2.3c-.4-.3-.5-.5-.4-.6h.3l.6.3c.2 0 .3.1.3.3l-.2.4s-.3 0-.6-.4zm-.4-1.6c-.2-.4 0-.6.3-.7.1 0 .2.1.3.5.1.4.1.7 0 .8-.3.3-.5 0-.6-.6zm1.9 2c.4-.4.9-.3 1.2.4.2.3.1.4-.1.2s-.4-.3-.5-.2c-.7 0-.8-.1-.6-.4zm-.5-1.7c.4-.4.6-.7.6-1l-.4.4-.3.3c.1-.2 0-.3-.1-.3-.2 0-.3 0-.2-.1-.1-.2 0-.2.2-.3.2 0 .3 0 .2-.3 0-.2.2-.5.5-.8.2-.3.3-.3.4 0l-.1.5c-.2 0-.2.1 0 .3.2.2 0 .7-.5 1.4-.3.3-.3.4 0 .2.2 0 .4-.2.4-.3 0-.1 0-.1.1 0l-.1.4-.4.5c0 .1-.1.1-.2 0l-.3-.2c-.4.2-.3 0 .2-.7zm.8.9c-.4.3-.3.2.1-.3.6-.6 1.2-.8 2-.7.6 0 .4.3-.4.5-.5.2-.7.4-.7.5 0 .2-.1.3-.4.2-.2 0-.4-.1-.3-.3h-.3zm.2-1.4c.2 0 .2-.4.2-1 0-1.2 0-1.7.3-1.4.1.2.4 0 .7-.2.3-.2.5-.3.4 0-.1.2-.1.4 0 .4v.3c-.5.7-.4.9.4.5.2 0 .3 0 .2.1 0 .2 0 .2-.4.3-.8.2-1 .3-.3.2l.4.1c0 .1 0 .2-.2.2-.9 0-1 .2-.3.3h.7l-.9.2c-.9.1-1.3.2-1.2 0zm.7-1c0-.4 0-.7-.2-.8v.6c0 .8.1.9.2.1zm.3-.3v-.3-.5l-.1.3.1.5zm-.2-1c-.2 0-.2 0 0-.2.1-.2.2-.2.2-.1l-.2.2zm1 .7c-.6 0-.5-.2.3-.6.1-.2.2 0 .1.2-.1.3-.2.4-.4.4zm-.2-1.7l.5-.5.5-.5-1 1zm.5.7c-.4 0-.4-.2 0-.7l3-3.4a9677.2 9677.2 0 0 1-2.3 2.8 85.4 85.4 0 0 0 9.5-10.4c.1 0 .7-.4 1.6-1.5l1.2-1.5c-.1 0 0-.3.5-.7l.8-1c0-.2.1-.2.3 0l.1.1.1.2-2.7 3.3A4732.8 4732.8 0 0 0 133 126v-.4l1.2-1.6 1.2-1.3-1.4 1.3c-.8.9-1.4 1.4-1.6 1.4zm2.3 0s-.1-.1 0-.2c.1-.2.2-.2.2-.1l-.2.2zm1.3-1.8c-.3 0 .8-1.4 3.5-4.4a50.9 50.9 0 0 1 3.5-4c1.2-1.6 2.3-2.9 3.5-4l1.5-1.5-1.6 1.7a424 424 0 0 0-8.8 10.4l-1.6 1.8zm5.7-8.9c-.2 0-.2 0-.1-.1 0-.1.2-.1.2 0 0 0 .1 0 0 .1h-.1zm1.2-1.4c-.2-.1 0-.5.7-1 .3 0 .2 0-.1.5a3 3 0 0 1-.6.5zm1.5-2l.1-.2c.1-.2.1 0 .2 0 0-.1 0-.1 0 0l-.3.2zm3-2.3l.2-.5c.2-.2.3-.3.4-.2 0 0 0 .2-.3.4-.1.3-.3.3-.3.3zm.6-1.4c0-.1 0-.1.2 0v.4c-.2.1-.2 0-.2-.4zm.5 0v-.3c.2 0 .2-.2.1-.3-.1 0 0-.1.2 0l-.1-.4c-.7-.5-1-1-1-1.3l-.2-1c-.1-.3.4.1 1.6 1.3a27.6 27.6 0 0 0 2.9 2.7l-1.1-.7a7.1 7.1 0 0 0-.7-.4c.2.2.2.4 0 .5v.3c.2.2.1.3-.2.3-.3 0-.4-.1-.5-.2 0-.2 0-.2.1 0h.3c0-.2 0-.3-.2-.5-.6-.5-1-.5-1 0h-.2zm-.3-1.6h.3c0-.1 0-.2-.2-.3l-.3-.1.2.4zm1.3.8c.1.1.3.2.4 0l-.1-.2-.4-.2c-.2 0-.1.2 0 .4zm1.1-.1c-.7-.7-1.2-1.2-1.3-1.6-.1-.5 0-.8.2-1 .7-.4.7-.5 0-.3-.9.1-1 0-.6-.5.1-.1.2-.3 0-.4 0-.2 0-.3.2-.4 0 0 .1 0 0-.2 0-.2.1-.4.6-.8.5-.3.9-.5 1.1-.4.1 0 .3 0 .4-.2.1-.1.3-.2.7-.2.3 0 .6-.2.8-.4.2-.2.4-.3.6-.2.6.3.7.7.4 1.3-.3.5-.4.9-.3 1.2 0 .4.2.4.6 0 .3-.3.9-.7 1.7-1 .8-.3 1.3-.3 1.4-.2.3.3 0 .8-.9 1.6-.2.3-.2.4 0 .4l-.1.7-.3.8s0 .4-.3 1l-.7 1.2-.4.4c-.1-.1-.1 0 0 .4 0 .3-.1.4-.3.3h-.3c0 .3-.5.2-1.4-.2l-1.8-1.3zm-.6-3.5c.3 0 .6 0 .8-.3.8-.8.7-.9-.2-.3-.3.1-.4.2-.4 0-.1-.3-.4-.3-.8.2-.2.2 0 .4.6.4zm4.7 3.8c.3-.4.4-.7 0-1l.1-.4c.2-.2.2-.4.1-.5-.3-.3-.5 0-.7 1-.1 1.1 0 1.4.5.9z"/>
</g>  
</svg>
