<?xml version="1.0" encoding="utf-8"?>
<!-- Generator: Adobe Illustrator 15.0.2, SVG Export Plug-In . SVG Version: 6.00 Build 0)  -->
<!DOCTYPE svg PUBLIC "-//W3C//DTD SVG 1.1//EN" "http://www.w3.org/Graphics/SVG/1.1/DTD/svg11.dtd">
<svg version="1.1" id="Layer_1" xmlns="http://www.w3.org/2000/svg" xmlns:xlink="http://www.w3.org/1999/xlink" x="0px" y="0px"
	 viewBox="0 0 283.117 58.117" enable-background="new 0 0 283.117 58.117"
	 xml:space="preserve">
<g>
	<path fill="#FFFFFF" d="M0,0h13.321v2.68H3.192v8.22h9.358v2.642H3.192v11.193H0V0z"/>
	<path fill="#FFFFFF" d="M32.546,0.33c1.615-0.33,3.927-0.514,6.128-0.514c3.413,0,5.615,0.625,7.156,2.019
		c1.248,1.101,1.945,2.789,1.945,4.697c0,3.267-2.055,5.432-4.661,6.312v0.111c1.908,0.66,3.046,2.422,3.633,4.99
		c0.808,3.449,1.395,5.835,1.908,6.789h-3.303c-0.403-0.697-0.954-2.826-1.651-5.908c-0.734-3.413-2.055-4.697-4.954-4.808h-3.009
		v10.716h-3.192V0.33z M35.738,11.597h3.266c3.413,0,5.578-1.872,5.578-4.697c0-3.192-2.312-4.587-5.688-4.624
		c-1.542,0-2.642,0.146-3.156,0.294V11.597z"/>
	<path fill="#FFFFFF" d="M70.155,0v24.734h-3.192V0H70.155z"/>
	<path fill="#FFFFFF" d="M88.721,22.863l13.725-20.074V2.68h-12.55V0h16.697v1.945l-13.651,20v0.11h13.835v2.679H88.721V22.863z"/>
	<path fill="#FFFFFF" d="M123.688,22.863l13.725-20.074V2.68h-12.55V0h16.698v1.945l-13.652,20v0.11h13.835v2.679h-18.056V22.863z"
		/>
	<path fill="#FFFFFF" d="M164.343,16.955l-2.568,7.779h-3.303L166.876,0h3.852l8.441,24.734h-3.414l-2.641-7.779H164.343z
		 M172.453,14.459l-2.422-7.119c-0.549-1.615-0.916-3.082-1.283-4.514h-0.074c-0.367,1.468-0.77,2.973-1.248,4.477l-2.422,7.156
		H172.453z"/>
	<path fill="#FFFFFF" d="M197.476,24.734V0h3.486l7.926,12.514c1.836,2.899,3.266,5.505,4.441,8.037l0.072-0.037
		c-0.293-3.303-0.367-6.312-0.367-10.164V0h3.01v24.734h-3.229l-7.854-12.551c-1.725-2.752-3.377-5.578-4.625-8.257l-0.109,0.037
		c0.184,3.119,0.258,6.092,0.258,10.202v10.568H197.476z"/>
	<path fill="#FFFFFF" d="M240.992,2.716h-7.523V0h18.313v2.716h-7.559v22.019h-3.23V2.716z"/>
	<path fill="#FFFFFF" d="M282.015,13.139H272.4v8.917h10.717v2.679h-13.908V0h13.357v2.68H272.4v7.816h9.615V13.139z"/>
</g>
<g>
	<path fill="#FFFFFF" d="M84.692,58.117v-4.521h-3.696v4.521h-2.887V46.814h2.887v4.246h3.696v-4.246h2.887v11.303H84.692z"/>
	<path fill="#FFFFFF" d="M104.25,58.117l-0.55-1.635h-3.925l-0.596,1.635h-3.101l4.536-11.303h2.276l4.491,11.303H104.25z
		 M101.776,50.328h-0.015h-0.03l-1.161,3.863h2.368L101.776,50.328z"/>
</g>
<g>
	<path fill="#FFFFFF" d="M120.605,58.331c-3.284,0-5.957-2.565-5.957-5.88s2.643-5.851,5.927-5.851c2.046,0,3.849,0.946,4.979,2.657
		c0.367,0.551,0.657,1.191,0.764,1.849h-3.024c-0.443-1.161-1.466-1.97-2.734-1.97c-1.833,0-3.024,1.557-3.024,3.299
		c0,1.74,1.191,3.359,3.04,3.359c1.268,0,2.214-0.793,2.719-1.908h3.024C125.661,56.559,123.339,58.331,120.605,58.331z"/>
	<path fill="#FFFFFF" d="M141.462,58.117l-3.086-4.888h-0.03v4.888h-2.888V46.814h2.888V51.9h0.03l3.192-5.086h3.024l-3.742,5.637
		l3.986,5.666H141.462z"/>
	<path fill="#FFFFFF" d="M160.316,58.117l-4.307-6.873l-0.031,0.016l0.078,6.857h-2.766V46.814h2.49l4.367,7.103l0.031-0.03
		l-0.123-7.072h2.766v11.303H160.316z"/>
	<path fill="#FFFFFF" d="M172.222,58.117V46.814h6.277v2.535h-3.512v1.757h3.406v2.536h-3.406v1.939h3.512v2.535H172.222z"/>
	<path fill="#FFFFFF" d="M193.001,54.008v4.109h-2.887v-4.109l-3.375-7.193h3.131l1.68,4.536l1.695-4.536h3.1L193.001,54.008z"/>
</g>
</svg>
