<?xml version="1.0" encoding="utf-8"?>
<!-- Generator: Adobe Illustrator 15.0.0, SVG Export Plug-In . SVG Version: 6.00 Build 0)  -->
<!DOCTYPE svg PUBLIC "-//W3C//DTD SVG 1.1 Tiny//EN" "http://www.w3.org/Graphics/SVG/1.1/DTD/svg11-tiny.dtd">
<svg version="1.1" baseProfile="tiny" id="Layer_1" xmlns="http://www.w3.org/2000/svg" xmlns:xlink="http://www.w3.org/1999/xlink"
	 x="0px" y="0px" width="30px" height="36.139px" viewBox="0 0 30 36.139" xml:space="preserve">
<g>
	<path d="M14.999,0C6.715,0,0,6.715,0,15c0,4.079,1.631,7.774,4.271,10.479h0l0.007,0.007c0.079,0.08,0.156,0.158,0.236,0.235
		l10.418,10.417l9.41-9.409C27.79,23.982,30,19.751,30,15C30,6.715,23.283,0,14.999,0z M14.999,25.345
		C9.287,25.345,4.655,20.713,4.655,15c0-5.714,4.632-10.345,10.344-10.345c5.713,0,10.345,4.631,10.345,10.345
		C25.344,20.713,20.712,25.345,14.999,25.345z"/>
</g>
</svg>
