<?xml version="1.0" encoding="utf-8"?>
<!-- Generator: Adobe Illustrator 15.0.0, SVG Export Plug-In . SVG Version: 6.00 Build 0)  -->
<!DOCTYPE svg PUBLIC "-//W3C//DTD SVG 1.1 Tiny//EN" "http://www.w3.org/Graphics/SVG/1.1/DTD/svg11-tiny.dtd">
<svg version="1.1" baseProfile="tiny" id="Layer_1" xmlns="http://www.w3.org/2000/svg" xmlns:xlink="http://www.w3.org/1999/xlink"
	 x="0px" y="0px" width="63px" height="44.833px" viewBox="0 0 63 44.833" xml:space="preserve">
<g>
	<path fill="#C84A37" d="M29.323,18.594c0,0,5.503,7.669-0.981,15.008c0,0-9.365,7.206-17.158-3.204c0,0-6.614-11.27,3.274-19.14
		c0,0,7.729-6.14,16.045-0.804c0,0,5.959,2.733,8.581,12.209c0,0,2.882-8.741,2.945-8.94c0.066-0.198-1.31-0.399-3.275-4.138
		C36.79,5.854,23.828-5.33,9.414,7.853c0,0-13.36,12.276-1.701,28.551c0,0,3.93,6.336,13.755,6.003c0,0,13.226,0.735,16.307-11.808
		c0,0,2.292-17.677-14.214-20.346c0,0-11.199-1.2-12.574,11.475c0,0-1.768,11.473,10.414,12.273c0,0,8.84-0.066,8.447-8.471
		c0,0-0.064-8.939-7.139-8.873c0,0-5.305-0.466-5.305,5.869c0,0-0.392,5.338,3.799,5.272c0,0,2.227,0.198,2.292-2.47
		c0,0-0.195-3.003-2.488-1.668c0,0-0.983-0.932,0.13-1.799c0,0,0.523-1.136,2.751,0.201c0,0,2.75,2.665,0.263,6.136
		c0,0-3.537,3.334-6.944-0.866c0,0-3.797-4.535,0.196-10.008C17.404,17.325,23.43,10.589,29.323,18.594z M60.563,17.926
		c0,0-1.703,0.133-4.063,3.937c0,0-1.046,1.732-2.353,0.201c0,0-3.668-5.674-4.194-6.14c0,0-0.425-0.701-1.015-0.265
		c0,0-0.425,0.465,0.33,1.533c0,0,2.812,4.104,3.24,5.606c0.425,1.498,0.885,5.334-1.868,7.47c0,0-4.125,3.169-7.137-2.736
		c0,0-1.212-2.533-0.523-8.072c0,0,0.082-3.916-0.231-3.734c-0.229,0.131-4.582,9.003-3.339,23.878c0,0,7.138,1.204,12.245-4.935
		c0,0,2.753-2.866,3.799-6.805c0,0,0.786-4.802,4.915-8.405l1.046-0.866C61.415,18.594,61.938,17.658,60.563,17.926z M30.438,42.34
		c3.407,0.066,7.337-2.001,7.337-2.001c-0.066-0.267-0.33-4.535-0.33-4.535C35.416,39.474,29.897,42.331,30.438,42.34z"/>
</g>
</svg>
