<?xml version="1.0" encoding="utf-8"?>
<!-- Generator: Adobe Illustrator 15.0.0, SVG Export Plug-In . SVG Version: 6.00 Build 0)  -->
<!DOCTYPE svg PUBLIC "-//W3C//DTD SVG 1.1//EN" "http://www.w3.org/Graphics/SVG/1.1/DTD/svg11.dtd">
<svg version="1.1" id="Capa_1" xmlns="http://www.w3.org/2000/svg" xmlns:xlink="http://www.w3.org/1999/xlink" x="0px" y="0px"
	 width="49.652px" height="49.652px" viewBox="0 0 49.652 49.652" enable-background="new 0 0 49.652 49.652" xml:space="preserve">
<path fill="#A6A298" d="M24.826,0C11.137,0,0,11.137,0,24.826c0,13.689,11.14,24.826,24.826,24.826
	c13.688,0,24.826-11.138,24.826-24.826C49.652,11.138,38.516,0,24.826,0z"/>
<path fill="#321F19" d="M30.396,25.699h-3.646c0,5.821,0,12.988,0,12.988h-5.396c0,0,0-7.098,0-12.988h-2.568v-4.59h2.568V18.14
	c0-2.127,1.01-5.449,5.449-5.449l4,0.015v4.456c0,0-2.433,0-2.903,0c-0.475,0-1.146,0.236-1.146,1.25v2.698h4.115L30.396,25.699z"/>
</svg>
