<?xml version="1.0" encoding="utf-8"?>
<!-- Generator: Adobe Illustrator 15.0.0, SVG Export Plug-In . SVG Version: 6.00 Build 0)  -->
<!DOCTYPE svg PUBLIC "-//W3C//DTD SVG 1.1//EN" "http://www.w3.org/Graphics/SVG/1.1/DTD/svg11.dtd">
<svg version="1.1" id="Capa_1" xmlns="http://www.w3.org/2000/svg" xmlns:xlink="http://www.w3.org/1999/xlink" x="0px" y="0px"
	 width="49.652px" height="49.652px" viewBox="0 0 49.652 49.652" enable-background="new 0 0 49.652 49.652" xml:space="preserve">
<path fill="#A6A298" d="M24.826,0C11.137,0,0,11.137,0,24.826C0,38.515,11.14,49.652,24.826,49.652
	c13.688,0,24.826-11.138,24.826-24.826C49.652,11.138,38.516,0,24.826,0z"/>
<g>
	<g>
		<path fill="#321F19" d="M29.95,13.824h-5.247c-2.338,0-3.957,0.511-5.414,1.716c-1.146,0.989-1.83,2.425-1.83,3.842
			c0,2.187,1.666,4.507,4.753,4.507c0.297,0,0.625-0.029,0.915-0.058l-0.043,0.104c-0.123,0.297-0.241,0.577-0.241,1.015
			c0,0.852,0.41,1.377,0.809,1.886l0.05,0.064l-0.089,0.006c-1.275,0.087-3.646,0.251-5.378,1.313
			c-2.048,1.217-2.206,2.987-2.206,3.5c0,2.045,1.903,4.104,6.156,4.104c4.943,0,7.53-2.727,7.53-5.422
			c0-1.993-1.168-2.979-2.408-4.021l-1.048-0.814c-0.321-0.269-0.725-0.602-0.725-1.219c0-0.606,0.402-1.008,0.758-1.362
			l0.036-0.037c1.131-0.89,2.411-1.899,2.411-4.082c0-2.195-1.371-3.328-2.031-3.874h1.742c0.021,0,0.042-0.006,0.063-0.018
			l1.499-0.943c0.043-0.027,0.063-0.08,0.049-0.127C30.047,13.858,30.002,13.824,29.95,13.824z M23.587,34.625
			c-3.014,0-5.039-1.408-5.039-3.503c0-1.368,0.828-2.361,2.46-2.953c1.308-0.44,2.992-0.463,3.009-0.463
			c0.285,0,0.429,0,0.657,0.029c2.109,1.5,3.125,2.289,3.125,3.79C27.797,33.438,26.183,34.625,23.587,34.625z M23.558,23.086
			c-2.53,0-3.58-3.326-3.58-5.105c0-0.906,0.207-1.602,0.63-2.124c0.459-0.576,1.246-0.947,2.005-0.947
			c2.322,0,3.606,3.122,3.606,5.279c0,0.34,0,1.376-0.716,2.096C25.025,22.762,24.242,23.086,23.558,23.086z"/>
		<path fill="#321F19" d="M37.306,24.1H34.54v-2.754c0-0.063-0.05-0.115-0.112-0.115h-1.189c-0.063,0-0.114,0.052-0.114,0.115V24.1
			h-2.75c-0.063,0-0.114,0.051-0.114,0.113v1.206c0,0.063,0.053,0.112,0.114,0.112h2.75v2.775c0,0.062,0.051,0.112,0.114,0.112
			h1.189c0.063,0,0.112-0.052,0.112-0.112v-2.775h2.768c0.062,0,0.111-0.049,0.111-0.112v-1.206
			C37.419,24.151,37.368,24.1,37.306,24.1z"/>
	</g>
</g>
</svg>
