<?xml version="1.0" encoding="utf-8"?>
<!-- Generator: Adobe Illustrator 15.0.0, SVG Export Plug-In . SVG Version: 6.00 Build 0)  -->
<!DOCTYPE svg PUBLIC "-//W3C//DTD SVG 1.1//EN" "http://www.w3.org/Graphics/SVG/1.1/DTD/svg11.dtd">
<svg version="1.1" id="Capa_1" xmlns="http://www.w3.org/2000/svg" xmlns:xlink="http://www.w3.org/1999/xlink" x="0px" y="0px"
	 width="49.652px" height="49.652px" viewBox="0 0 49.652 49.652" enable-background="new 0 0 49.652 49.652" xml:space="preserve">
<path fill="#321F19" d="M24.826,0C11.137,0,0,11.137,0,24.826c0,13.689,11.14,24.826,24.826,24.826
	c13.688,0,24.826-11.138,24.826-24.826C49.652,11.138,38.516,0,24.826,0z"/>
<path fill="#F5F5F5" d="M30.118,25.698h-3.463c0,5.53,0,12.339,0,12.339h-5.127c0,0,0-6.742,0-12.339h-2.44v-4.36h2.44v-2.82
	c0-2.021,0.959-5.177,5.177-5.177l3.8,0.014v4.233c0,0-2.311,0-2.758,0c-0.451,0-1.09,0.225-1.09,1.188v2.563h3.91L30.118,25.698z"
	/>
</svg>
