<?xml version="1.0" encoding="utf-8"?>
<!-- Generator: Adobe Illustrator 15.0.0, SVG Export Plug-In . SVG Version: 6.00 Build 0)  -->
<!DOCTYPE svg PUBLIC "-//W3C//DTD SVG 1.1//EN" "http://www.w3.org/Graphics/SVG/1.1/DTD/svg11.dtd">
<svg version="1.1" id="Capa_1" xmlns="http://www.w3.org/2000/svg" xmlns:xlink="http://www.w3.org/1999/xlink" x="0px" y="0px"
	 width="49.652px" height="49.652px" viewBox="0 0 49.652 49.652" enable-background="new 0 0 49.652 49.652" xml:space="preserve">
<path fill="#321F19" d="M24.826,0C11.137,0,0,11.135,0,24.826c0,13.688,11.139,24.826,24.826,24.826
	c13.688,0,24.826-11.139,24.826-24.826C49.652,11.135,38.516,0,24.826,0z"/>
<g>
	<path fill="#F5F5F5" d="M31.435,13.533H18.216c-2.731,0-4.956,2.223-4.956,4.958v12.667c0,2.73,2.225,4.957,4.956,4.957h13.219
		c2.732,0,4.957-2.227,4.957-4.957V18.491C36.392,15.756,34.168,13.533,31.435,13.533z"/>
	<path fill="#321F19" d="M35.29,31.159c0,2.124-1.728,3.855-3.854,3.855H18.216c-2.125,0-3.854-1.73-3.854-3.855v-8.263h5.552
		c-1.05,1.171-1.698,2.713-1.698,4.407c0,3.645,2.965,6.609,6.61,6.609c3.646,0,6.609-2.965,6.609-6.609
		c0-1.693-0.645-3.235-1.697-4.407h5.552V31.159z"/>
	<path fill="#321F19" d="M24.826,21.794c3.036,0,5.507,2.472,5.507,5.509s-2.471,5.508-5.507,5.508
		c-3.037,0-5.508-2.471-5.508-5.508S21.789,21.794,24.826,21.794z"/>
	<path fill="#321F19" d="M35.29,21.794h-6.817c-1.047-0.693-2.3-1.1-3.646-1.1c-1.346,0-2.6,0.406-3.645,1.1h-6.819v-3.303
		c0-2.126,1.728-3.856,3.854-3.856h13.219c2.126,0,3.854,1.729,3.854,3.856V21.794z"/>
	<path fill="#321F19" d="M24.826,31.159c2.126,0,3.854-1.729,3.854-3.856c0-2.124-1.728-3.854-3.854-3.854
		c-2.125,0-3.855,1.729-3.855,3.854C20.97,29.429,22.7,31.159,24.826,31.159z"/>
	<path fill="#321F19" d="M24.826,24.55c1.519,0,2.754,1.235,2.754,2.753c0,1.521-1.236,2.753-2.754,2.753s-2.754-1.233-2.754-2.753
		C22.072,25.785,23.307,24.55,24.826,24.55z"/>
	<path fill="#F5F5F5" d="M32.664,16.467h-2.123c-0.692,0-1.256,0.564-1.256,1.256v2.122c0,0.694,0.563,1.258,1.256,1.258h2.123
		c0.694,0,1.258-0.564,1.258-1.258v-2.122C33.922,17.031,33.358,16.467,32.664,16.467z"/>
</g>
</svg>
