<?xml version="1.0" encoding="utf-8"?>
<!-- Generator: Adobe Illustrator 15.0.0, SVG Export Plug-In . SVG Version: 6.00 Build 0)  -->
<!DOCTYPE svg PUBLIC "-//W3C//DTD SVG 1.1//EN" "http://www.w3.org/Graphics/SVG/1.1/DTD/svg11.dtd">
<svg version="1.1" id="Capa_1" xmlns="http://www.w3.org/2000/svg" xmlns:xlink="http://www.w3.org/1999/xlink" x="0px" y="0px"
	 width="49.652px" height="49.652px" viewBox="0 0 49.652 49.652" enable-background="new 0 0 49.652 49.652" xml:space="preserve">
<path fill="#A6A298" d="M24.826,0C11.137,0,0,11.135,0,24.826c0,13.688,11.139,24.826,24.826,24.826
	c13.688,0,24.826-11.139,24.826-24.826C49.652,11.135,38.516,0,24.826,0z"/>
<g>
	<path fill="#321F19" d="M31.783,12.939H17.868c-2.875,0-5.217,2.34-5.217,5.219v13.334c0,2.875,2.342,5.219,5.217,5.219h13.915
		c2.876,0,5.218-2.344,5.218-5.219V18.158C37.001,15.279,34.659,12.939,31.783,12.939z"/>
	<path fill="#A6A298" d="M35.841,31.492c0,2.236-1.818,4.059-4.058,4.059H17.868c-2.237,0-4.057-1.821-4.057-4.059v-8.697h5.844
		c-1.105,1.232-1.787,2.855-1.787,4.64c0,3.836,3.121,6.957,6.958,6.957s6.957-3.121,6.957-6.957c0-1.783-0.679-3.406-1.786-4.64
		h5.844V31.492z"/>
	<path fill="#A6A298" d="M24.826,21.635c3.196,0,5.797,2.603,5.797,5.8c0,3.196-2.601,5.797-5.797,5.797s-5.798-2.601-5.798-5.797
		C19.028,24.237,21.63,21.635,24.826,21.635z"/>
	<path fill="#A6A298" d="M35.841,21.635h-7.177c-1.102-0.729-2.42-1.157-3.838-1.157c-1.417,0-2.736,0.428-3.837,1.157h-7.178
		v-3.477c0-2.238,1.818-4.059,4.057-4.059h13.915c2.238,0,4.058,1.819,4.058,4.059V21.635z"/>
	<path fill="#A6A298" d="M24.826,31.492c2.238,0,4.058-1.82,4.058-4.059c0-2.236-1.818-4.058-4.058-4.058
		c-2.237,0-4.059,1.82-4.059,4.058C20.767,29.672,22.589,31.492,24.826,31.492z"/>
	<path fill="#A6A298" d="M24.826,24.535c1.599,0,2.898,1.301,2.898,2.898c0,1.6-1.301,2.897-2.898,2.897s-2.899-1.299-2.899-2.897
		C21.927,25.836,23.227,24.535,24.826,24.535z"/>
	<path fill="#321F19" d="M33.076,16.027h-2.234c-0.729,0-1.322,0.594-1.322,1.322v2.233c0,0.73,0.594,1.324,1.322,1.324h2.234
		c0.731,0,1.324-0.594,1.324-1.324v-2.233C34.4,16.621,33.807,16.027,33.076,16.027z"/>
</g>
</svg>
