<?xml version="1.0" encoding="utf-8"?>
<!-- Generator: Adobe Illustrator 15.0.0, SVG Export Plug-In . SVG Version: 6.00 Build 0)  -->
<!DOCTYPE svg PUBLIC "-//W3C//DTD SVG 1.1//EN" "http://www.w3.org/Graphics/SVG/1.1/DTD/svg11.dtd">
<svg version="1.1" id="Capa_1" xmlns="http://www.w3.org/2000/svg" xmlns:xlink="http://www.w3.org/1999/xlink" x="0px" y="0px"
	 width="49.652px" height="49.652px" viewBox="0 0 49.652 49.652" enable-background="new 0 0 49.652 49.652" xml:space="preserve">
<path fill="#A6A298" d="M24.826,0C11.137,0,0,11.137,0,24.826c0,13.689,11.139,24.826,24.826,24.826
	c13.688,0,24.826-11.138,24.826-24.826C49.652,11.138,38.516,0,24.826,0z"/>
<path fill="#321F19" d="M34.71,19.756c0.011,0.221,0.016,0.441,0.016,0.661c0,6.739-5.128,14.507-14.511,14.507
	c-2.879,0-5.56-0.842-7.815-2.289c0.398,0.048,0.804,0.071,1.217,0.071c2.39,0,4.587-0.814,6.333-2.183
	c-2.231-0.041-4.115-1.516-4.764-3.542c0.311,0.06,0.631,0.092,0.958,0.092c0.465,0,0.916-0.061,1.344-0.178
	c-2.333-0.469-4.09-2.528-4.09-5c0-0.021,0-0.044,0.001-0.064c0.687,0.381,1.473,0.611,2.309,0.637
	c-1.367-0.913-2.268-2.475-2.268-4.242c0-0.937,0.251-1.813,0.688-2.565c2.515,3.086,6.273,5.115,10.511,5.329
	c-0.088-0.374-0.132-0.763-0.132-1.163c0-2.816,2.282-5.1,5.1-5.1c1.467,0,2.79,0.62,3.722,1.61
	c1.163-0.229,2.251-0.651,3.239-1.238c-0.383,1.191-1.189,2.189-2.245,2.821c1.032-0.123,2.018-0.396,2.929-0.802
	C36.571,18.14,35.707,19.038,34.71,19.756z"/>
</svg>
