<?xml version="1.0" encoding="utf-8"?>
<!-- Generator: Adobe Illustrator 15.0.0, SVG Export Plug-In . SVG Version: 6.00 Build 0)  -->
<!DOCTYPE svg PUBLIC "-//W3C//DTD SVG 1.1//EN" "http://www.w3.org/Graphics/SVG/1.1/DTD/svg11.dtd">
<svg version="1.1" id="Capa_1" xmlns="http://www.w3.org/2000/svg" xmlns:xlink="http://www.w3.org/1999/xlink" x="0px" y="0px"
	 width="49.652px" height="49.652px" viewBox="0 0 49.652 49.652" enable-background="new 0 0 49.652 49.652" xml:space="preserve">
<path fill="#321F19" d="M24.826,0C11.137,0,0,11.137,0,24.826s11.138,24.826,24.826,24.826s24.826-11.138,24.826-24.826
	S38.516,0,24.826,0z"/>
<path fill="#F5F5F5" d="M34.71,19.756c0.01,0.22,0.015,0.441,0.015,0.661c0,6.739-5.128,14.507-14.51,14.507
	c-2.879,0-5.56-0.842-7.816-2.289c0.399,0.047,0.804,0.071,1.217,0.071c2.39,0,4.587-0.815,6.333-2.183
	c-2.231-0.041-4.115-1.515-4.764-3.542c0.311,0.06,0.631,0.092,0.958,0.092c0.465,0,0.916-0.061,1.344-0.178
	c-2.333-0.468-4.09-2.528-4.09-5c0-0.021,0-0.044,0.001-0.064c0.687,0.381,1.473,0.611,2.309,0.637
	c-1.367-0.914-2.268-2.475-2.268-4.243c0-0.936,0.251-1.812,0.689-2.565c2.514,3.086,6.273,5.115,10.51,5.329
	c-0.087-0.374-0.131-0.763-0.131-1.163c0-2.816,2.282-5.1,5.099-5.1c1.467,0,2.79,0.62,3.722,1.611
	c1.163-0.229,2.251-0.652,3.239-1.239c-0.383,1.192-1.189,2.19-2.245,2.822c1.032-0.123,2.018-0.396,2.929-0.802
	C36.571,18.14,35.707,19.038,34.71,19.756z"/>
</svg>
